<svg xmlns="http://www.w3.org/2000/svg" width="811" height="335" viewBox="0 0 811 335" version="1.1"><path d="" stroke="none" fill="#289cfc" fill-rule="evenodd"/><path d="M 156.431 48.056 C 94.259 54.090, 49.842 103.389, 49.715 166.500 C 49.685 181.589, 50.678 188.731, 54.654 202 C 63.126 230.278, 82.985 255.294, 109 270.455 C 142.627 290.053, 184.625 291.796, 219.687 275.049 C 236.389 267.071, 244.560 260.861, 245.592 255.362 C 246.507 250.485, 232.005 218.571, 227.912 216.455 C 223.251 214.044, 219.423 214.625, 215.253 218.373 C 208.579 224.373, 199.315 229.661, 190.306 232.614 C 182.425 235.197, 180.135 235.500, 168.500 235.497 C 153.785 235.493, 146.809 233.778, 135 227.262 C 126.502 222.573, 113.427 209.498, 108.738 201 C 102.057 188.893, 100.495 182.317, 100.540 166.500 C 100.576 154.027, 100.873 151.628, 103.265 144.500 C 110.478 123.001, 125.071 108.416, 146.500 101.288 C 153.589 98.929, 156.094 98.620, 168.500 98.574 C 181.346 98.526, 183.160 98.753, 190.500 101.327 C 198.658 104.187, 211.115 111.260, 214.413 114.904 C 215.419 116.015, 217.765 117.427, 219.627 118.042 C 222.436 118.969, 223.642 118.848, 226.714 117.330 C 230.102 115.655, 231.033 114.143, 237.690 99.500 C 247.572 77.762, 247.455 75.779, 235.822 67.879 C 220.278 57.323, 199.896 50.090, 179.924 48.040 C 168.873 46.906, 168.271 46.907, 156.431 48.056 M 363.327 47.646 C 359.490 48.481, 356 52.891, 356 56.905 C 356 61.821, 455.803 280.426, 459.565 283.750 C 462.051 285.946, 462.669 286, 485.445 286 C 506.189 286, 509.015 285.806, 510.908 284.250 C 512.188 283.198, 525.312 254.565, 543.795 212.500 C 560.711 174, 576.790 138.684, 579.526 134.020 C 586.894 121.458, 596.195 112.555, 608 106.763 C 621.594 100.094, 628.028 98.596, 643 98.612 C 654.456 98.625, 656.289 98.896, 664.946 101.859 C 676.735 105.895, 684.252 110.417, 691.700 117.952 C 703.742 130.136, 710.001 145.265, 710.749 164 C 711.304 177.903, 709.710 185.833, 704.016 197.500 C 695.633 214.676, 681.715 226.721, 663 232.997 C 653.003 236.349, 636.841 236.861, 626.169 234.162 C 615.547 231.476, 607.010 227.246, 598.456 220.429 C 586.055 210.547, 582.616 212.613, 571.911 236.377 C 565.011 251.693, 564.801 252.391, 565.932 256.167 C 567.449 261.231, 575.422 267.213, 590.500 274.602 C 632.871 295.365, 684.196 288.618, 720.198 257.552 C 740.110 240.370, 753.593 217.419, 759.296 191 C 761.988 178.531, 762.117 155.292, 759.560 143.529 C 755.280 123.836, 748.501 108.219, 738.268 94.476 C 709.651 56.047, 660.704 39.490, 611.203 51.495 C 578.049 59.535, 555.895 77.094, 537.647 109.794 C 534.668 115.132, 521.732 142.331, 508.901 170.236 C 496.070 198.141, 485.237 220.637, 484.828 220.228 C 484.419 219.819, 467.825 183.713, 447.953 139.992 C 403.797 42.846, 407.474 50.573, 404.760 49.233 C 402.467 48.101, 367.407 46.758, 363.327 47.646 M 287.073 50.635 C 285.003 53.265, 285 53.456, 285 167 C 285 280.544, 285.003 280.735, 287.073 283.365 L 289.145 286 308.618 286 C 327.960 286, 328.107 285.983, 330.545 283.545 L 333 281.091 333 167 L 333 52.909 330.545 50.455 C 328.107 48.017, 327.960 48, 308.618 48 L 289.145 48 287.073 50.635" stroke="none" fill="#249cfc" fill-rule="evenodd"/></svg>