<svg id="Layer_1" data-name="Layer 1" xmlns="http://www.w3.org/2000/svg" viewBox="0 0 351 70"><defs><style>.cls-1{fill:#1eca80;}</style></defs><title>HorLogo_Green</title><path class="cls-1" d="M70.35,30A35.27,35.27,0,0,0,40.5.1V30Z"/><path class="cls-1" d="M.16,35A35.27,35.27,0,0,0,30.41,69.9V.11A35.27,35.27,0,0,0,.16,35Z"/><circle class="cls-1" cx="55.62" cy="54.31" r="15.13"/><path class="cls-1" d="M114.17,22.52v8.41h14.64v6.9H114.17v9.34h16.92v7.11h-25V15.46H131v7.06Z"/><path class="cls-1" d="M264,47.17v7.11H239V15.46h8V47.17Z"/><path class="cls-1" d="M291.68,37.73V54.28h-7.32V52.1a9.29,9.29,0,0,1-6.85,2.75c-5.4,0-8.93-2.75-8.93-7.94,0-6,5-7.89,10.74-8.15l4.78-.26v-1c0-2.7-1.14-4.15-3.48-4.15a3.43,3.43,0,0,0-3.74,3.53l-7.58-.31c0-4.72,4.31-9.6,11.21-9.6C287.73,26.93,291.68,30.67,291.68,37.73Zm-11.63,6c-2.28.1-3.89.88-3.89,2.8,0,1.76,1.3,2.44,3.11,2.44,2.75,0,4.83-1.51,4.83-4.36V43.49Z"/><path class="cls-1" d="M304.54,29.78c1.4-1.61,4.1-2.85,7.52-2.85,7.63,0,13,5.5,13,14s-5.35,14-13,14c-3.74,0-6.54-1.5-7.94-3.32v2.75H297V14h7.58Zm0,10.48v1.19c0,4.36,2.59,6.85,6.33,6.85s6.49-2.65,6.49-7.42-2.7-7.47-6.49-7.47S304.54,36,304.54,40.27Z"/><path class="cls-1" d="M350.47,35.6l-7.53.41a3.1,3.1,0,0,0-3.43-3.27c-2,0-3.06.83-3.06,2.28,0,1.87,2,2.13,5.24,3,5.34,1.4,9.13,3.06,9.13,7.94,0,5.45-4,8.93-11,8.93-6.85,0-10.85-3.11-11.42-8.72l7.58-.42c.1,2,1.3,3.32,3.89,3.32,2.08,0,3.37-.88,3.37-2.44s-1-2.13-4.88-3.06c-5.71-1.45-9.5-2.65-9.5-8.15,0-5.14,4-8.46,10.74-8.46S350,30.62,350.47,35.6Z"/><path class="cls-1" d="M162.19,37.88v16.4h-7.58V39.33c0-3.43-1.82-5.35-4.72-5.35s-5,2.18-5,5.4V54.28h-7.58V27.45h7.16V30.2c1.19-1.87,3.58-3.27,7.21-3.27C157.88,26.93,162.19,30.93,162.19,37.88Z"/><path class="cls-1" d="M175.66,54.28,164.08,27.45h8.35l6.28,15.78,6.23-15.78h8.35L181.73,54.28Z"/><path class="cls-1" d="M215.39,27.45l-6.23,15.78-6.28-15.78h-8.36l10.33,26.83a1.2,1.2,0,0,1,0,.43,3.91,3.91,0,0,1-1.3,2.24,5.39,5.39,0,0,1-4.71.87,16,16,0,0,1-1.75-.52v7.08l.87.31a13.87,13.87,0,0,0,4.38.57,8.21,8.21,0,0,0,4.9-1.4,10.44,10.44,0,0,0,2.5-2.7,25.18,25.18,0,0,0,2.58-5.07l.72-1.81,10.69-26.83Z"/></svg>