<svg xmlns="http://www.w3.org/2000/svg" width="180" height="88" viewBox="0 0 180 88" fill="none"><path class="stax-logo-x" d="M158.09 7.5528V9.43533L163.363 12.0663L158.09 14.6973V16.5799L167.158 12.0663L158.09 7.5528ZM158.09 18.4397V20.3222L169.044 14.8788L179.999 20.3222V18.4397L169.044 12.9963L158.09 18.4397ZM169.044 5.44346L158.09 0V1.88253L169.044 7.32599L179.999 1.88253V0L169.044 5.44346ZM179.999 12.7921V10.9096L174.726 8.27859L179.999 5.64759V3.76506L170.931 8.27859L179.999 12.7921ZM158.09 5.64759L179.999 16.5572V14.6747L158.09 3.76506V5.64759Z" fill="#B93BE4"></path><path d="M56.8637 42.6631V33.1144H69.6591V20.3449H56.8637V7.57547H44.0682V42.6631C44.0682 54.4573 53.6819 64.0514 65.5 64.0514H69.6591V51.2819H65.5C60.7273 51.2819 56.8637 47.4261 56.8637 42.6631ZM16.2046 37.6959L22.6591 49.4447C23.1136 50.2839 22.5227 51.2819 21.5682 51.2819H0V64.0514H25.1591C34.0909 64.0514 39.75 54.5026 35.4546 46.7003L29 34.9515C28.5455 34.1123 29.1364 33.0917 30.0909 33.0917H41.2728V20.3449H26.5C17.5909 20.3449 11.9091 29.8937 16.2046 37.6959ZM155.046 33.1144H158.114V20.3449H155.386C147.841 20.3449 140.796 23.8151 136.205 29.5988C131.614 23.8151 124.568 20.3449 117.023 20.3449H114.296V33.1144H117.364C122.977 33.1144 127.682 36.9928 128.955 42.2095C127.682 47.4261 122.977 51.3046 117.364 51.3046H114.296V41.8012C114.296 29.5308 104.296 19.5284 91.9773 19.5284C79.6819 19.5284 69.6591 29.5308 69.6591 41.8012C69.6591 54.0717 79.6819 64.074 91.9773 64.074H98.7273V51.3046H91.9773C86.7273 51.3046 82.4546 47.0406 82.4546 41.8012C82.4546 36.5619 86.7273 32.2978 91.9773 32.2978C97.2273 32.2978 101.5 36.5619 101.5 41.8012V64.074H117.023C124.568 64.074 131.614 60.6038 136.205 54.8202C140.796 60.6038 147.841 64.074 155.386 64.074H158.114V51.3046H155.046C149.432 51.3046 144.727 47.4261 143.455 42.2095C144.705 36.9702 149.409 33.1144 155.046 33.1144Z" fill="#B93BE4"></path><path d="M0 84.4382V74.4621H1.61775V78.5065C2.157 77.8324 2.96587 77.2932 4.04437 77.2932C5.93174 77.2932 7.41467 78.9109 7.41467 80.9331C7.41467 82.9553 5.93174 84.573 4.04437 84.573C3.10068 84.573 2.157 84.1686 1.61775 83.4945V84.4382H0ZM3.63993 78.7761C2.42662 78.7761 1.48294 79.7198 1.48294 80.9331C1.48294 82.1464 2.42662 83.0901 3.63993 83.0901C4.85324 83.0901 5.79693 82.1464 5.79693 80.9331C5.79693 79.7198 4.85324 78.7761 3.63993 78.7761Z" fill="#B93BE4"></path><path d="M8.08905 87.4032V85.9203C8.22387 86.0551 8.49349 86.1899 8.76312 86.1899C9.30236 86.1899 9.7068 85.9203 10.1112 85.1114L10.3809 84.4373L7.5498 77.5619H9.30236L11.1897 82.6848L13.2119 77.5619H14.9645L11.729 85.381C11.0549 86.9988 10.246 87.6728 9.03274 87.6728C8.6283 87.6728 8.22387 87.538 8.08905 87.4032Z" fill="#B93BE4"></path><path d="M20.762 77.428H22.6494V78.7761H20.762V84.4382H19.1442V78.7761H18.0657V77.428H19.1442V77.0235C19.1442 75.1361 20.2227 74.1925 21.8405 74.1925C22.3797 74.1925 22.6494 74.3273 22.919 74.3273V75.8102C22.6494 75.6754 22.3797 75.6754 22.1101 75.6754C21.436 75.6754 20.8968 76.0798 20.8968 77.0235V77.428H20.762Z" fill="#B93BE4"></path><path d="M27.5006 84.4371V83.4934C26.9613 84.1675 26.1525 84.5719 25.3436 84.5719C24.1303 84.5719 23.1866 83.763 23.1866 82.5497C23.1866 81.2016 23.9955 80.5275 25.6132 80.2579L27.5006 79.9883V79.8535C27.5006 79.0446 26.9613 78.6402 26.0176 78.6402C25.074 78.6402 24.2651 79.0446 23.591 79.5838V78.1009C24.2651 77.5617 25.074 77.292 26.0176 77.292C27.905 77.292 28.9835 78.2357 28.9835 79.9883V84.4371H27.5006ZM25.748 83.2238C26.8265 83.2238 27.5006 82.5497 27.5006 81.606V81.2016L25.8828 81.4712C25.074 81.606 24.6695 81.8757 24.6695 82.4149C24.8043 82.9542 25.2088 83.2238 25.748 83.2238Z" fill="#B93BE4"></path><path d="M33.7006 83.0905C33.9702 83.0905 34.2399 82.9557 34.5095 82.8209V84.3038C34.2399 84.4386 33.8354 84.5734 33.2962 84.5734C31.9481 84.5734 31.0044 83.7646 31.0044 82.2816V78.7765H29.6562V78.5069L32.4873 75.541V77.4284H34.2399V78.7765H32.4873V81.8772C32.4873 82.8209 32.8917 83.0905 33.7006 83.0905ZM38.9583 83.0905C39.2279 83.0905 39.4975 82.9557 39.7672 82.8209V84.3038C39.4975 84.4386 39.0931 84.5734 38.5539 84.5734C37.2057 84.5734 36.2621 83.7646 36.2621 82.2816V78.7765H35.0487V78.5069L37.8798 75.541V77.4284H39.7672V78.7765H37.8798V81.8772C37.8798 82.8209 38.1494 83.0905 38.9583 83.0905Z" fill="#B93BE4"></path><path d="M42.3326 84.437H40.7148V77.4268H42.3326V78.3705C42.737 77.6964 43.4111 77.292 44.3548 77.292C45.2985 77.292 46.1073 77.8312 46.5118 78.6401C46.9162 77.9661 47.7251 77.292 48.8036 77.292C50.4213 77.292 51.365 78.3705 51.365 80.123V84.437H49.7473V80.3927C49.7473 79.3142 49.208 78.7749 48.3991 78.7749C47.4555 78.7749 46.9162 79.449 46.9162 80.6623V84.437H45.2985V80.5275C45.2985 79.449 44.7592 78.7749 43.9503 78.7749C43.0066 78.7749 42.4674 79.5838 42.4674 80.6623V84.437H42.3326Z" fill="#B93BE4"></path><path d="M59.0482 83.8989C58.3741 84.3034 57.4305 84.7078 56.352 84.7078C54.0601 84.7078 52.5772 83.0901 52.5772 81.0679C52.5772 78.9109 54.0601 77.4279 56.0823 77.4279C58.1045 77.4279 59.4526 78.9109 59.4526 81.0679C59.4526 81.3375 59.4526 81.4723 59.4526 81.6071H54.195C54.3298 82.5508 55.1386 83.3597 56.4868 83.3597C57.2956 83.3597 58.2393 83.0901 59.0482 82.416V83.8989ZM57.8349 80.259C57.7001 79.3153 57.026 78.6413 56.0823 78.6413C55.1386 78.6413 54.3298 79.4501 54.195 80.259H57.8349Z" fill="#B93BE4"></path><path d="M64.5757 79.0457C64.5757 79.0457 64.3061 79.0457 64.1713 79.0457C62.958 79.0457 62.1491 79.9894 62.1491 81.4723V84.573H60.5314V77.5628H62.1491V78.7761C62.5536 77.9672 63.3624 77.4279 64.3061 77.4279C64.4409 77.4279 64.5757 77.4279 64.5757 77.4279V79.0457Z" fill="#B93BE4"></path><path d="M68.4832 77.292C69.1573 77.292 69.8313 77.4268 70.3706 77.8313V79.449C69.8313 79.0446 69.2921 78.775 68.618 78.775C67.4047 78.775 66.461 79.7187 66.461 80.932C66.461 82.1453 67.4047 83.089 68.618 83.089C69.2921 83.089 69.8313 82.8193 70.3706 82.4149V84.0327C69.8313 84.3023 69.1573 84.5719 68.4832 84.5719C66.3262 84.5719 64.8433 83.089 64.8433 80.932C64.8433 78.9098 66.3262 77.292 68.4832 77.292Z" fill="#B93BE4"></path><path d="M73.2037 84.438H71.5859V74.4619H73.2037V78.3715C73.6081 77.6974 74.417 77.293 75.3607 77.293C77.1132 77.293 78.0569 78.5063 78.0569 80.2588V84.438H76.4392V80.5285C76.4392 79.45 75.8999 78.7759 74.8214 78.7759C73.8777 78.7759 73.2037 79.5848 73.2037 80.7981V84.438Z" fill="#B93BE4"></path><path d="M83.7163 84.437V83.4934C83.1771 84.1674 82.3682 84.5719 81.5593 84.5719C80.346 84.5719 79.4023 83.763 79.4023 82.5497C79.4023 81.2015 80.2112 80.5275 81.829 80.2579L83.7163 79.9882V79.8534C83.7163 79.0445 83.1771 78.6401 82.2334 78.6401C81.2897 78.6401 80.4808 79.0445 79.8068 79.5838V78.1009C80.4808 77.5616 81.2897 77.292 82.2334 77.292C84.1208 77.292 85.1993 78.2357 85.1993 79.9882V84.437H83.7163ZM81.829 83.2237C82.9075 83.2237 83.5815 82.5497 83.5815 81.606V81.2015L81.9638 81.4712C81.1549 81.606 80.7505 81.8756 80.7505 82.4149C80.8853 82.9541 81.2897 83.2237 81.829 83.2237Z" fill="#B93BE4"></path><path d="M88.4381 84.437H86.8203V77.4268H88.4381V78.3705C88.8425 77.6964 89.6514 77.292 90.595 77.292C92.3476 77.292 93.2913 78.5053 93.2913 80.2579V84.437H91.6736V80.5275C91.6736 79.449 91.1343 78.7749 90.0558 78.7749C89.1121 78.7749 88.4381 79.5838 88.4381 80.7971V84.437Z" fill="#B93BE4"></path><path d="M97.8705 83.0905C98.1401 83.0905 98.4097 82.9557 98.6794 82.8209V84.3038C98.4097 84.4386 98.0053 84.5734 97.4661 84.5734C96.1179 84.5734 95.1743 83.7646 95.1743 82.2816V78.7765H93.9609V78.5069L96.792 75.541V77.4284H98.6794V78.7765H96.792V81.8772C96.792 82.8209 97.0616 83.0905 97.8705 83.0905Z" fill="#B93BE4"></path></svg>