<svg xmlns="http://www.w3.org/2000/svg" width="300" height="300" viewBox="0 0 300 300" version="1.1"><path d="M 129.500 4.627 C 96.783 9.715, 69.453 23.486, 46.460 46.466 C 40.127 52.795, 32.750 61.442, 29.158 66.745 C 21.257 78.412, 13.100 95.259, 9.417 107.517 C 6.571 116.991, 6.565 117, 3.284 117 L 0 117 0 159.972 L 0 202.944 13.750 203.222 L 27.500 203.500 27.772 223.381 L 28.043 243.263 37.311 252.381 C 61.591 276.271, 90.147 289.730, 128.743 295.475 C 159.613 300.070, 196.832 293.692, 226.588 278.708 C 238.779 272.568, 252.160 262.884, 262.228 252.913 L 271.957 243.279 272.228 223.389 L 272.500 203.500 286.500 203 L 300.500 202.500 300.760 159.473 L 301.021 116.445 297.183 116.811 L 293.345 117.177 291.507 110.339 C 278.430 61.684, 236.439 20.553, 187.056 8.027 C 167.240 3, 147.468 1.832, 129.500 4.627 M 135 18.627 C 76.870 25.968, 30.739 68.913, 19.929 125.750 C 18.868 131.324, 18.483 132, 16.370 132 L 14 132 14 160 L 14 188 24.319 188 L 34.637 188 39.128 195.058 C 44.329 203.233, 53.754 214.045, 62.802 222.217 C 78.806 236.671, 100.734 247.539, 124.232 252.664 C 135.958 255.222, 164.135 255.201, 175.960 252.625 C 212.027 244.770, 242.356 224.072, 261.500 194.249 L 265.500 188.017 275.750 188.009 L 286 188 286 160 L 286 132 283.673 132 C 281.588 132, 281.218 131.297, 280.116 125.250 C 279.439 121.537, 277.362 113.928, 275.501 108.340 C 260.481 63.258, 223.536 30.619, 176 20.435 C 168.688 18.868, 142.301 17.705, 135 18.627 M 133.500 50.659 C 94.917 55.287, 65.922 70.588, 45.875 96.899 L 41 103.298 41 141.719 L 41 180.140 43.888 184.320 C 60.648 208.577, 90.989 226.197, 125.399 231.657 C 138.247 233.696, 170.748 233.036, 182 230.508 C 212.979 223.548, 235.856 209.944, 253.177 188.184 L 259 180.869 259 141.775 L 259 102.682 254.786 97.091 C 231.682 66.437, 193.950 49.701, 149 50.169 C 142.125 50.241, 135.150 50.462, 133.500 50.659 M 0.459 160 C 0.459 183.925, 0.589 193.713, 0.749 181.750 C 0.908 169.788, 0.908 150.213, 0.749 138.250 C 0.589 126.288, 0.459 136.075, 0.459 160 M 63.191 121.546 L 63.500 126.297 73.726 130.899 C 79.350 133.429, 83.962 135.770, 83.976 136.100 C 83.989 136.430, 79.285 138.905, 73.522 141.600 L 63.043 146.500 63.022 151.336 L 63 156.172 69.250 152.726 C 72.688 150.831, 79.438 147.156, 84.250 144.559 C 92.815 139.938, 93 139.761, 92.980 136.169 L 92.960 132.500 78.826 125 C 71.053 120.875, 64.285 117.341, 63.787 117.147 C 63.289 116.953, 63.021 118.932, 63.191 121.546 M 99 174.500 L 99 179 125.500 179 L 152 179 152 174.500 L 152 170 125.500 170 L 99 170 99 174.500 M 252.958 227.598 C 248.261 232.441, 235.322 242.772, 228.402 247.203 C 214.590 256.048, 195.213 263.696, 177.763 267.190 C 163.258 270.095, 138.310 270.311, 124.500 267.652 C 96.397 262.240, 70.926 249.574, 50.750 230.977 L 43 223.833 43 230.789 L 43 237.746 50.400 244.775 C 92.556 284.819, 164.804 293.586, 220.135 265.370 C 232.071 259.283, 243.872 250.848, 251.848 242.702 L 257.195 237.239 257.348 230.119 C 257.431 226.203, 257.481 222.999, 257.458 223 C 257.435 223, 255.410 225.069, 252.958 227.598" stroke="none" fill="#fffcfc" fill-rule="evenodd"/><path d="" stroke="none" fill="#fcfcfc" fill-rule="evenodd"/></svg>