<svg xmlns="http://www.w3.org/2000/svg" width="626" height="600" viewBox="0 0 626 600" version="1.1"><path d="M 317.222 188.470 C 312.524 189.937, 308.852 192.507, 299.618 200.793 C 293.321 206.442, 287.126 209.939, 283.348 209.978 C 282.164 209.990, 273.942 206.600, 265.077 202.444 C 255.166 197.798, 246.762 194.531, 243.257 193.960 C 225.135 191.011, 201.017 204.050, 192.258 221.534 C 184.250 237.516, 172.400 272.052, 152.981 336 C 143.530 367.122, 142.807 370.103, 142.795 378 C 142.787 383.421, 143.376 388.115, 144.420 390.957 C 150.635 407.874, 165.978 418.008, 185.355 417.994 C 195.288 417.988, 199.423 416.912, 205.629 412.723 C 215.371 406.147, 215.973 404.880, 248.030 323.500 C 270.725 265.886, 270.780 265.769, 276.327 263.084 C 282.265 260.209, 285.294 260.442, 289.451 264.091 C 294.479 268.506, 295.644 273.545, 293.580 281.954 C 292.696 285.554, 284.892 306.050, 276.237 327.500 C 261.006 365.246, 260.500 366.731, 260.500 373.677 C 260.500 382.204, 262.243 385.287, 269.020 388.750 C 274.713 391.659, 285.560 391.837, 291.541 389.121 C 299.119 385.678, 303.236 379.422, 320.903 344.500 C 358.724 269.740, 363.431 260.793, 367.179 256.534 C 375.472 247.113, 387.253 250.620, 385.720 262.054 C 385.056 267.004, 379.233 280.184, 361.224 317.500 C 343.633 353.949, 340.066 362.829, 339.289 372.098 C 338.084 386.467, 343.904 401.936, 354.489 412.500 C 366.642 424.630, 382.899 430.163, 407 430.374 C 424.269 430.524, 428.778 429.457, 434.327 423.908 C 438.225 420.011, 438.226 420.006, 437.832 413.038 C 437.491 407.003, 437.052 405.664, 434.558 403.060 C 431.110 399.461, 425.724 397.587, 413 395.557 C 401.080 393.655, 397.775 392.688, 393.989 389.992 C 389.348 386.687, 388 383.124, 388 374.159 C 388 359.389, 393.178 343.904, 413.310 298.464 C 426.292 269.162, 432.220 252.933, 434.022 241.761 C 435.068 235.281, 435.014 233.099, 433.659 227.100 C 430.223 211.886, 423.580 204.110, 410 199.405 C 405.779 197.943, 401.710 197.500, 392.500 197.500 C 380.696 197.500, 380.372 197.561, 372.646 201.250 C 368.327 203.313, 363.735 205, 362.443 205 C 360.953 205, 357.423 202.590, 352.797 198.412 C 342.985 189.554, 337.517 187.003, 328.500 187.077 C 324.650 187.108, 319.575 187.735, 317.222 188.470" stroke="none" fill="#fbfafa" fill-rule="evenodd"/><path d="M 176 4.951 C 169.618 8.348, 166.845 16.072, 169.565 22.872 C 173.878 33.651, 188.173 34.918, 194.730 25.102 C 199.329 18.217, 196.607 8.584, 188.980 4.752 C 184.555 2.528, 180.433 2.592, 176 4.951 M 339.627 21.468 C 322.669 27.513, 317.433 50.932, 330.118 64.003 C 340.572 74.774, 357.419 74.783, 367.861 64.023 C 378.389 53.175, 377.089 34.390, 365.182 25.308 C 358.241 20.014, 348.017 18.478, 339.627 21.468 M 260 78.074 C 215.526 81.360, 174.619 109.912, 154.360 151.808 C 151.884 156.928, 149.328 161.261, 148.679 161.438 C 148.031 161.614, 144.051 162.517, 139.836 163.444 C 125.030 166.701, 111.028 175, 98.891 187.713 C 90.607 196.390, 86.072 203.411, 81.267 215 C 72.056 237.211, 73.095 264.793, 83.956 286.412 L 87.707 293.880 83.773 297.690 C 78.126 303.159, 68.870 317.359, 65.189 326.200 C 54.022 353.025, 54.976 379.862, 68.027 406 C 78.580 427.135, 97.680 443.668, 120.721 451.611 C 126.100 453.465, 131.679 454.986, 133.121 454.991 C 135.639 455, 135.769 455.282, 136.451 462.199 C 139.739 495.572, 159.382 525.422, 188.328 541.036 C 203.299 549.111, 221.968 554.007, 237.743 553.996 C 245.421 553.991, 259.973 551.562, 268 548.946 C 276.369 546.219, 289.470 539.717, 294.191 535.947 C 296.222 534.326, 298.355 533, 298.933 533 C 299.510 533, 302.018 534.554, 304.506 536.452 C 325.674 552.611, 357.030 555.679, 381.528 543.988 C 391.582 539.191, 399.982 532.799, 406.743 524.800 C 412.253 518.282, 418.965 506.335, 421.017 499.392 L 422.231 495.285 434.366 494.167 C 461.676 491.651, 482.642 482.565, 501.093 465.249 C 537.443 431.136, 546.985 379.331, 525.122 334.788 L 520.355 325.075 525.038 320.463 C 531.162 314.430, 536.430 305.423, 539.636 295.500 C 542.915 285.349, 543.324 268.999, 540.535 259.500 C 535.642 242.829, 522.621 226.952, 508 219.826 C 503.875 217.816, 499.712 215.922, 498.750 215.617 C 497.222 215.133, 497 213.658, 497 203.989 C 497 186.439, 493.436 171.953, 484.923 154.898 C 459.983 104.934, 401.228 79.849, 347.758 96.337 L 343.016 97.799 331.758 92.104 C 308.999 80.592, 286.218 76.138, 260 78.074 M 116.264 101.502 C 108.310 106.374, 104.480 117.567, 107.834 126.139 C 109.586 130.617, 114.880 135.789, 119.529 137.564 C 132.435 142.493, 145.677 133.748, 146.746 119.590 C 147.224 113.266, 144.260 107.016, 138.677 102.574 C 135.351 99.928, 133.918 99.491, 127.677 99.220 C 121.394 98.947, 119.972 99.231, 116.264 101.502 M 529.252 162.104 C 512.859 170.219, 512.804 193.652, 529.158 202.065 C 534.907 205.023, 540.095 205.461, 546.024 203.492 C 557.012 199.842, 563.555 188.527, 561.078 177.459 C 559.662 171.131, 554.342 164.514, 548.556 161.886 C 542.971 159.350, 534.627 159.444, 529.252 162.104 M 317.222 188.470 C 312.524 189.937, 308.852 192.507, 299.618 200.793 C 293.321 206.442, 287.126 209.939, 283.348 209.978 C 282.164 209.990, 273.942 206.600, 265.077 202.444 C 255.166 197.798, 246.762 194.531, 243.257 193.960 C 225.135 191.011, 201.017 204.050, 192.258 221.534 C 184.250 237.516, 172.400 272.052, 152.981 336 C 143.530 367.122, 142.807 370.103, 142.795 378 C 142.787 383.421, 143.376 388.115, 144.420 390.957 C 150.635 407.874, 165.978 418.008, 185.355 417.994 C 195.288 417.988, 199.423 416.912, 205.629 412.723 C 215.371 406.147, 215.973 404.880, 248.030 323.500 C 270.725 265.886, 270.780 265.769, 276.327 263.084 C 282.265 260.209, 285.294 260.442, 289.451 264.091 C 294.479 268.506, 295.644 273.545, 293.580 281.954 C 292.696 285.554, 284.892 306.050, 276.237 327.500 C 261.006 365.246, 260.500 366.731, 260.500 373.677 C 260.500 382.204, 262.243 385.287, 269.020 388.750 C 274.713 391.659, 285.560 391.837, 291.541 389.121 C 299.119 385.678, 303.236 379.422, 320.903 344.500 C 358.724 269.740, 363.431 260.793, 367.179 256.534 C 375.472 247.113, 387.253 250.620, 385.720 262.054 C 385.056 267.004, 379.233 280.184, 361.224 317.500 C 343.633 353.949, 340.066 362.829, 339.289 372.098 C 338.084 386.467, 343.904 401.936, 354.489 412.500 C 366.642 424.630, 382.899 430.163, 407 430.374 C 424.269 430.524, 428.778 429.457, 434.327 423.908 C 438.225 420.011, 438.226 420.006, 437.832 413.038 C 437.491 407.003, 437.052 405.664, 434.558 403.060 C 431.110 399.461, 425.724 397.587, 413 395.557 C 401.080 393.655, 397.775 392.688, 393.989 389.992 C 389.348 386.687, 388 383.124, 388 374.159 C 388 359.389, 393.178 343.904, 413.310 298.464 C 426.292 269.162, 432.220 252.933, 434.022 241.761 C 435.068 235.281, 435.014 233.099, 433.659 227.100 C 430.223 211.886, 423.580 204.110, 410 199.405 C 405.779 197.943, 401.710 197.500, 392.500 197.500 C 380.696 197.500, 380.372 197.561, 372.646 201.250 C 368.327 203.313, 363.735 205, 362.443 205 C 360.953 205, 357.423 202.590, 352.797 198.412 C 342.985 189.554, 337.517 187.003, 328.500 187.077 C 324.650 187.108, 319.575 187.735, 317.222 188.470 M 604.270 240.483 C 596.515 243.854, 594.566 255.543, 600.827 261.137 C 611.878 271.011, 627.689 257.843, 619.974 245.190 C 617.996 241.944, 612.811 238.962, 609.282 239.039 C 608.302 239.061, 606.046 239.710, 604.270 240.483 M 22 260.876 C 8.891 265.190, 2.455 273.838, 2.559 287 C 2.628 295.792, 4.773 300.837, 10.626 305.976 C 23.618 317.384, 42.815 314.409, 51.466 299.648 C 60.987 283.403, 49.238 261.683, 30.254 260.432 C 27.089 260.223, 23.375 260.423, 22 260.876 M 571.500 315.417 C 567.773 317.081, 563.469 321.596, 562.064 325.315 C 557.052 338.580, 571.176 352.132, 584.298 346.649 C 588.713 344.804, 593.758 338.806, 594.580 334.425 C 596.986 321.602, 583.158 310.214, 571.500 315.417 M 103.461 472.574 C 98.986 474.113, 96.308 477.145, 95.425 481.672 C 94.201 487.951, 96.667 492.776, 102.684 495.875 C 109.970 499.628, 120 493.222, 120 484.815 C 120 475.422, 112.127 469.595, 103.461 472.574 M 449.435 513.829 C 439.009 518.721, 432.949 528.025, 433.076 538.946 C 433.215 550.946, 438.112 558.960, 448.396 564.023 C 454.369 566.964, 455.625 567.224, 461.745 566.785 C 469.668 566.216, 474.972 563.779, 480.140 558.335 C 485.399 552.794, 487.264 548.431, 487.763 540.500 C 488.168 534.059, 487.933 532.981, 484.823 527 C 482.161 521.881, 480.229 519.665, 475.731 516.571 C 470.403 512.907, 469.464 512.618, 461.760 512.282 C 455.182 511.995, 452.672 512.310, 449.435 513.829 M 288.024 563.186 C 282.380 567.020, 280 571.414, 280 578 C 280 587.588, 285.848 593.991, 295.321 594.777 C 305.526 595.623, 312.963 589.497, 313.786 579.566 C 314.660 569.023, 308.361 561.863, 297.630 561.202 C 292.457 560.884, 290.957 561.193, 288.024 563.186" stroke="none" fill="#ec143c" fill-rule="evenodd"/></svg>