<svg xmlns="http://www.w3.org/2000/svg" width="300" height="300" viewBox="0 0 300 300" version="1.1"><path d="" stroke="none" fill="#80acbc" fill-rule="evenodd"/><path d="M 126.355 4.975 C 71.654 14.501, 27.040 52.855, 9.998 105.005 C 8.349 110.051, 7 114.815, 7 115.590 C 7 116.535, 5.845 117, 3.500 117 L 0 117 0 159.972 L 0 202.944 13.750 203.222 L 27.500 203.500 27.772 223.445 L 28.044 243.390 37.772 252.958 C 85.052 299.459, 163.362 310.453, 225.402 279.298 C 240.908 271.511, 254.375 261.653, 265.229 250.143 L 271.958 243.007 272.229 223.254 L 272.500 203.500 286.500 203 L 300.500 202.500 300.760 159.473 L 301.021 116.445 297.260 116.800 L 293.500 117.155 291.266 109.130 C 280.671 71.076, 251.932 36.782, 215.318 18.504 C 188.363 5.047, 155.038 -0.021, 126.355 4.975 M 136 18.610 C 76.326 25.987, 29.601 69.981, 19.556 128.250 C 19.015 131.389, 18.510 132, 16.455 132 L 14 132 14 160 L 14 188 24.337 188 L 34.674 188 40.087 196.231 C 43.064 200.759, 49.650 208.788, 54.721 214.074 C 73.812 233.971, 97.150 246.786, 125 252.662 C 136.830 255.158, 163.170 255.158, 175 252.662 C 193.080 248.847, 209.927 241.788, 224.992 231.714 C 235.114 224.946, 253.361 206.499, 260.073 196.250 L 265.476 188 275.738 188 L 286 188 286 160 L 286 132 283.701 132 C 281.601 132, 281.204 131.113, 279.111 121.750 C 273.219 95.395, 261.374 74.329, 241.801 55.395 C 217.286 31.681, 188.115 19.441, 154 18.554 C 146.025 18.347, 137.925 18.373, 136 18.610 M 125.500 51.521 C 90.656 57.142, 64.523 72.289, 44.196 98.644 L 41 102.788 41 141.973 L 41 181.157 46.902 188.380 C 62.482 207.447, 81.836 220.267, 105.923 227.477 C 132.002 235.283, 165.783 235.428, 193 227.850 C 217.006 221.167, 239.711 206.031, 254.127 187.101 L 259 180.702 259 141.670 L 259 102.638 253.403 95.331 C 237.089 74.031, 212.700 59.507, 182.199 52.928 C 169.299 50.146, 138.727 49.387, 125.500 51.521 M 0.459 160 C 0.459 183.925, 0.589 193.713, 0.749 181.750 C 0.908 169.788, 0.908 150.213, 0.749 138.250 C 0.589 126.288, 0.459 136.075, 0.459 160 M 63.191 121.401 L 63.500 126.025 73.712 130.763 C 79.329 133.368, 83.941 135.735, 83.962 136.022 C 83.983 136.309, 79.275 138.894, 73.500 141.766 L 63 146.988 63 151.576 L 63 156.163 66.250 154.221 C 68.037 153.152, 74.787 149.485, 81.250 146.072 C 92.634 140.059, 93 139.763, 93 136.555 C 93 134.735, 92.438 132.801, 91.750 132.259 C 91.063 131.717, 84.286 128.012, 76.691 124.025 L 62.881 116.776 63.191 121.401 M 99 174.500 L 99 179 125.500 179 L 152 179 152 174.500 L 152 170 125.500 170 L 99 170 99 174.500 M 249.277 230.958 C 230.324 249.117, 204.753 262, 176.464 267.643 C 163.979 270.134, 136.021 270.134, 123.536 267.643 C 95.902 262.131, 70.523 249.443, 51.250 231.505 L 43 223.827 43 230.815 L 43 237.802 50.616 244.915 C 103.206 294.028, 197.837 293.945, 249.636 244.741 L 256.846 237.892 257.173 230.444 C 257.353 226.347, 257.500 223.014, 257.500 223.037 C 257.500 223.060, 253.800 226.624, 249.277 230.958" stroke="none" fill="#7cacbc" fill-rule="evenodd"/></svg>