<svg xmlns="http://www.w3.org/2000/svg" width="541" height="540" viewBox="0 0 541 540" version="1.1"><path d="M 298.500 159.041 L 292.500 159.974 285.500 162.081 L 278.500 164.188 269.836 168.651 L 261.172 173.114 253.690 179.498 L 246.208 185.882 241.602 191.867 L 236.997 197.852 233.059 205.176 L 229.121 212.500 226.654 220.093 L 224.186 227.686 223.041 237.093 L 221.896 246.500 222.532 253 L 223.168 259.500 225.077 267.801 L 226.987 276.103 230.369 283.423 L 233.751 290.744 237.978 296.968 L 242.205 303.192 248.352 309.457 L 254.500 315.721 262.210 320.750 L 269.919 325.780 277.210 328.812 L 284.500 331.843 292.902 333.543 L 301.304 335.243 315.402 334.746 L 329.500 334.249 336.500 332.009 L 343.500 329.769 350.500 326.267 L 357.500 322.766 364.268 317.775 L 371.035 312.785 376.841 306.351 L 382.648 299.918 386.660 293.209 L 390.673 286.500 393.320 279.871 L 395.967 273.242 397.467 266.871 L 398.968 260.500 399.608 252.980 L 400.249 245.461 399.060 236.480 L 397.870 227.500 394.811 218.256 L 391.752 209.013 386.761 200.904 L 381.771 192.795 375.221 185.851 L 368.671 178.908 360.502 173.473 L 352.333 168.037 346.530 165.471 L 340.727 162.905 332.614 160.947 L 324.500 158.989 314.500 158.548 L 304.500 158.107 298.500 159.041" stroke="none" fill="#ffffff" fill-rule="evenodd"/><path d="M 153.461 159.250 L 152.985 160.500 153.243 277.500 L 153.500 394.500 175 394.500 L 196.500 394.500 196.754 276.250 L 197.008 158 175.473 158 L 153.937 158 153.461 159.250" stroke="none" fill="#082d4b" fill-rule="evenodd"/><path d="M 244.500 2.053 L 235.500 2.974 221.959 5.450 L 208.418 7.926 195.959 11.507 L 183.500 15.088 172 19.672 L 160.500 24.256 151.500 28.761 L 142.500 33.267 132.500 39.277 L 122.500 45.287 114 51.384 L 105.500 57.481 95.500 66.130 L 85.500 74.780 77.900 82.640 L 70.300 90.500 64.308 97.592 L 58.317 104.684 51.293 114.592 L 44.270 124.500 38.518 134.349 L 32.767 144.198 27.494 155.349 L 22.220 166.500 18.639 176.129 L 15.058 185.759 12.080 196.129 L 9.103 206.500 7.089 216.500 L 5.076 226.500 3.538 238.970 L 2 251.440 2.009 269.970 L 2.017 288.500 3.472 300.500 L 4.926 312.500 6.375 320.500 L 7.824 328.500 9.942 336.785 L 12.060 345.069 15.413 355.285 L 18.765 365.500 24.290 378.252 L 29.814 391.005 36.517 402.752 L 43.220 414.500 50.578 425 L 57.936 435.500 68.051 447.276 L 78.166 459.053 88.742 468.602 L 99.318 478.152 107.084 484.064 L 114.851 489.976 125.675 497.032 L 136.500 504.089 149 510.431 L 161.500 516.774 173 521.293 L 184.500 525.812 195.490 529.005 L 206.480 532.199 218.334 534.608 L 230.188 537.017 245.755 538.509 L 261.321 540 271 540 L 280.679 540 296.245 538.509 L 311.812 537.017 323.666 534.608 L 335.520 532.199 346.510 529.005 L 357.500 525.812 369 521.293 L 380.500 516.774 393 510.431 L 405.500 504.089 416.325 497.032 L 427.149 489.976 434.916 484.064 L 442.682 478.152 453.091 468.725 L 463.500 459.299 472 449.554 L 480.500 439.810 487.078 431.085 L 493.656 422.361 499.502 412.930 L 505.348 403.500 510.979 392.500 L 516.609 381.500 521.260 369.857 L 525.910 358.215 529.429 346.106 L 532.948 333.996 534.980 323.861 L 537.012 313.726 538.497 301.113 L 539.982 288.500 539.991 269.970 L 540 251.440 538.462 238.970 L 536.924 226.500 534.911 216.500 L 532.897 206.500 529.920 196.129 L 526.942 185.759 523.361 176.129 L 519.780 166.500 514.506 155.349 L 509.233 144.198 503.482 134.349 L 497.730 124.500 490.677 114.550 L 483.624 104.600 474.975 94.550 L 466.327 84.500 456.883 75.496 L 447.439 66.492 438.969 59.698 L 430.500 52.904 420.927 46.516 L 411.355 40.128 400.516 34.101 L 389.678 28.073 379.089 23.417 L 368.500 18.760 355.500 14.475 L 342.500 10.191 331 7.649 L 319.500 5.108 309 3.491 L 298.500 1.875 276 1.504 L 253.500 1.132 244.500 2.053 M 153.461 159.250 L 152.985 160.500 153.243 277.500 L 153.500 394.500 175 394.500 L 196.500 394.500 196.754 276.250 L 197.008 158 175.473 158 L 153.937 158 153.461 159.250 M 298.500 159.041 L 292.500 159.974 285.500 162.081 L 278.500 164.188 269.836 168.651 L 261.172 173.114 253.690 179.498 L 246.208 185.882 241.602 191.867 L 236.997 197.852 233.059 205.176 L 229.121 212.500 226.654 220.093 L 224.186 227.686 223.041 237.093 L 221.896 246.500 222.532 253 L 223.168 259.500 225.077 267.801 L 226.987 276.103 230.369 283.423 L 233.751 290.744 237.978 296.968 L 242.205 303.192 248.352 309.457 L 254.500 315.721 262.210 320.750 L 269.919 325.780 277.210 328.812 L 284.500 331.843 292.902 333.543 L 301.304 335.243 315.402 334.746 L 329.500 334.249 336.500 332.009 L 343.500 329.769 350.500 326.267 L 357.500 322.766 364.268 317.775 L 371.035 312.785 376.841 306.351 L 382.648 299.918 386.660 293.209 L 390.673 286.500 393.320 279.871 L 395.967 273.242 397.467 266.871 L 398.968 260.500 399.608 252.980 L 400.249 245.461 399.060 236.480 L 397.870 227.500 394.811 218.256 L 391.752 209.013 386.761 200.904 L 381.771 192.795 375.221 185.851 L 368.671 178.908 360.502 173.473 L 352.333 168.037 346.530 165.471 L 340.727 162.905 332.614 160.947 L 324.500 158.989 314.500 158.548 L 304.500 158.107 298.500 159.041" stroke="none" fill="#fb6454" fill-rule="evenodd"/></svg>