<?xml version="1.0" encoding="utf-8"?>
<!-- Generator: Adobe Illustrator 25.1.0, SVG Export Plug-In . SVG Version: 6.00 Build 0)  -->
<svg version="1.1" id="Layer_1" xmlns="http://www.w3.org/2000/svg" xmlns:xlink="http://www.w3.org/1999/xlink" x="0px" y="0px"
	 viewBox="0 0 864 133.3" style="enable-background:new 0 0 864 133.3;" xml:space="preserve">
<style type="text/css">
	.Arched_x0020_Green{fill:url(#SVGID_1_);stroke:#FFFFFF;stroke-width:0.25;stroke-miterlimit:1;}
	.st0{fill:#2B2B2B;}
	.st1{fill:#196FB3;}
</style>
<linearGradient id="SVGID_1_" gradientUnits="userSpaceOnUse" x1="39.6667" y1="375.3207" x2="40.3738" y2="374.6136">
	<stop  offset="0" style="stop-color:#1EAB4B"/>
	<stop  offset="0.9831" style="stop-color:#19361A"/>
</linearGradient>
<g>
	<g>
		<path class="st0" d="M16.1,88.5v42H0V1.9h45c27.2,0,41.4,14.6,41.4,41.8c0,27.4-14.2,44.8-41.4,44.8H16.1z M44.8,73.7
			c17.6,0,25.2-12.8,25.2-30c0-17-7.6-27-25.2-27H16.1v57H44.8z"/>
		<path class="st0" d="M222.2,38.2l17,78.3h4.4l19.6-76.6h16.5l19.6,76.6h4.3l17.2-78.3h15.5l-20.9,92.3h-27l-17-69.7l-17.2,69.7
			h-26.8l-20.7-92.3H222.2z"/>
		<path class="st0" d="M422.3,117l0.4,12c0,0-18.3,3.5-34.4,3.5c-27.6,0-37.4-17.8-37.4-47.5c0-32.6,14.2-48.8,38.3-48.8
			c24,0,36.8,14.4,36.8,42.9l-0.9,11.7h-58.3c0,15.9,5.5,27.9,22.6,27.9C402.5,118.7,422.3,117,422.3,117z M410.3,78.5
			c0-20.2-6.7-29-21.1-29c-14.2,0-22.4,9.2-22.6,29H410.3z"/>
		<path class="st0" d="M450.6,38.2h15.5v11.5c0,0,13.3-10.2,29.8-13.5v16.5c-16.6,3.3-29.8,11.5-29.8,11.5v66.4h-15.5V38.2z"/>
	</g>
	<path class="st1" d="M514.8,130.2V2.2h42.4c39.6,0,50.3,22.4,50.3,61.8c0,40.1-9.6,66.2-50.3,66.2H514.8z M557.2,21.3h-21.8V111
		h21.8c24.2,0,28.9-20.9,28.9-47C586,38.1,581.4,21.3,557.2,21.3z"/>
	<path class="st1" d="M624.5,2.2h34.2l29,100.1L717,2.2h33.7v128h-20.5V26.5h-2.6l-29,98.6h-21.5l-29.2-98.6h-2.8v103.8h-20.5V2.2z"
		/>
	<path class="st1" d="M847.6,21.8c0,0-25.3-2.6-36.1-2.6c-14.2,0-22.6,5.4-22.6,16.5c0,11.5,6.7,15.4,27.4,21.8
		c25.7,8.5,35.5,14.4,35.5,35.9c0,26.8-13.1,38.8-42.7,38.8c-16.6,0-38.8-3.9-38.8-3.9l1.1-18.1c0,0,24.4,2.8,36.1,2.8
		c15,0,23.7-4.8,23.7-18.9c0-10-7-13.7-25.9-19.4c-27.2-8.9-36.8-17-36.8-38.8c0-23.9,15.2-35.9,42-35.9c17,0,37.9,4.3,37.9,4.3
		L847.6,21.8z"/>
	<g>
		<path class="st0" d="M858,3.5c1,0,2,0.3,3,0.8c1,0.5,1.7,1.3,2.3,2.2c0.5,1,0.8,2,0.8,3c0,1-0.3,2-0.8,3c-0.5,1-1.3,1.7-2.2,2.2
			c-1,0.5-2,0.8-3,0.8c-1,0-2-0.3-3-0.8c-1-0.5-1.7-1.3-2.2-2.2c-0.5-1-0.8-2-0.8-3c0-1.1,0.3-2.1,0.8-3c0.5-1,1.3-1.7,2.3-2.2
			C856,3.8,856.9,3.5,858,3.5z M858,4.5c-0.8,0-1.7,0.2-2.5,0.7c-0.8,0.4-1.4,1.1-1.9,1.9c-0.5,0.8-0.7,1.7-0.7,2.5
			c0,0.9,0.2,1.7,0.7,2.5c0.4,0.8,1.1,1.4,1.9,1.9c0.8,0.4,1.6,0.7,2.5,0.7c0.9,0,1.7-0.2,2.5-0.7c0.8-0.4,1.4-1.1,1.9-1.9
			c0.4-0.8,0.7-1.6,0.7-2.5c0-0.9-0.2-1.7-0.7-2.5c-0.5-0.8-1.1-1.4-1.9-1.9C859.6,4.7,858.8,4.5,858,4.5z M855.3,12.9V6.4h2.2
			c0.8,0,1.3,0.1,1.7,0.2c0.3,0.1,0.6,0.3,0.8,0.6c0.2,0.3,0.3,0.6,0.3,1c0,0.5-0.2,0.9-0.5,1.2c-0.3,0.4-0.8,0.6-1.3,0.6
			c0.2,0.1,0.4,0.2,0.6,0.3c0.3,0.3,0.6,0.7,1,1.3l0.8,1.3h-1.3l-0.6-1c-0.5-0.8-0.8-1.3-1.1-1.5c-0.2-0.1-0.5-0.2-0.8-0.2h-0.6v2.8
			H855.3z M856.4,9.2h1.3c0.6,0,1-0.1,1.2-0.3c0.2-0.2,0.3-0.4,0.3-0.7c0-0.2-0.1-0.4-0.2-0.5c-0.1-0.2-0.3-0.3-0.4-0.3
			c-0.2-0.1-0.5-0.1-1.1-0.1h-1.2V9.2z"/>
	</g>
	<polygon class="st1" points="153.8,85.2 138.2,85.2 133.3,23.1 158.8,23.1 	"/>
	<path class="st1" d="M168.2,37.6l-7.7,11.2c13.9,5.5,23.7,18.8,23.7,34.2c0,20.4-17.2,37-38.3,37s-38.3-16.6-38.3-37
		c0-15.4,9.8-28.7,23.7-34.2l-7.7-11.2C106.2,45.7,94,63,94,83.1c0,27.8,23.3,50.3,52,50.3s52-22.5,52-50.3
		C198,63,185.8,45.7,168.2,37.6z"/>
</g>
</svg>
