<?xml version="1.0" encoding="utf-8"?>
<!-- Generator: Adobe Illustrator 27.8.1, SVG Export Plug-In . SVG Version: 6.00 Build 0)  -->
<svg version="1.1" id="Layer_1" xmlns="http://www.w3.org/2000/svg" xmlns:xlink="http://www.w3.org/1999/xlink" x="0px" y="0px"
	 viewBox="0 0 48 48" style="enable-background:new 0 0 48 48;" xml:space="preserve">
<style type="text/css">
	.st0{fill:#FFFFFF;}
</style>
<rect x="7.8" y="6" class="st0" width="32.6" height="32.4"/>
<polygon class="st0" points="16.1,35.2 23.7,43.9 32,35.6 "/>
<path d="M24.3,33.8c0.5,0,1-0.2,1.3-0.6c0.4-0.4,0.6-0.8,0.6-1.4s-0.2-1-0.6-1.3c-0.4-0.4-0.8-0.6-1.4-0.6s-1,0.2-1.3,0.6
	c-0.4,0.4-0.6,0.8-0.6,1.4c0,0.5,0.2,1,0.6,1.3C23.3,33.6,23.8,33.8,24.3,33.8z M22.6,26.4h2.9c0-0.5,0-0.9,0.1-1.3
	c0.1-0.4,0.2-0.8,0.4-1.1s0.4-0.7,0.7-1.1c0.3-0.4,0.7-0.8,1.1-1.2c1.1-1.1,1.9-2.1,2.3-2.9s0.6-1.7,0.6-2.7c0-1.8-0.6-3.2-1.7-4.2
	c-1.1-1-2.7-1.6-4.6-1.6c-1.7,0-3.2,0.4-4.4,1.2c-1.2,0.8-2.1,1.9-2.7,3.4l2.6,1.1c0.5-0.9,1.1-1.6,1.8-2.1c0.7-0.5,1.6-0.7,2.6-0.7
	c1.1,0,1.9,0.3,2.5,0.8c0.6,0.5,0.9,1.3,0.9,2.2c0,0.7-0.2,1.3-0.5,1.9c-0.4,0.6-1,1.3-1.9,2.2c-0.6,0.5-1,1-1.4,1.4
	c-0.4,0.4-0.6,0.9-0.9,1.4c-0.2,0.5-0.3,1-0.4,1.5C22.7,25,22.6,25.6,22.6,26.4z M24,46l-6-6H9c-0.8,0-1.5-0.3-2.1-0.9
	C6.3,38.5,6,37.8,6,37V7c0-0.8,0.3-1.5,0.9-2.1S8.2,4,9,4h30c0.8,0,1.5,0.3,2.1,0.9S42,6.2,42,7v30c0,0.8-0.3,1.5-0.9,2.1
	C40.5,39.7,39.8,40,39,40h-9L24,46z M9,37h10.2l4.8,4.8l4.8-4.8H39V7H9V37z"/>
</svg>
