<svg height="40" viewBox="0 0 123 40" width="123" xmlns="http://www.w3.org/2000/svg" xmlns:xlink="http://www.w3.org/1999/xlink"><mask id="a" fill="#fff"><path d="m0 40h122.370741v-40h-122.370741z" fill="#fff" fill-rule="evenodd"/></mask><g fill="none" fill-rule="evenodd"><path d="m119.802333 28.3516667v9.0798148h-9.078333v2.5685185h11.646667v-11.6483333z" fill="#5aba52"/><path d="m0 0v11.6483333h2.56833333v-9.07981478h9.07833337v-2.56851852z" fill="#5aba52"/><g fill="#3d454e"><path d="m11.9070926 27.1439074c-1.3162963-1.0727778-1.98277779-2.6411111-1.99981482-4.7033333h2.69203702c.0496296 2.6835185 1.6761111 4.0248148 4.8792593 4.0248148 1.3255555 0 2.3444444-.2557408 3.0568518-.7677778.7124074-.5111111 1.0685185-1.2535185 1.0685185-2.2259259 0-.7885185-.2929629-1.3964815-.8796296-1.8238889-.5874074-.4277778-1.6437037-.8092593-3.1696296-1.1444444l-1.5346296-.3270371c-1.8446297-.3690741-3.2368519-.9725926-4.1755556-1.8114815-.9392593-.8381481-1.4087037-1.9955555-1.4087037-3.4703703 0-1.4766667.57-2.6546297 1.7103704-3.535 1.1403703-.8805556 2.6835185-1.3207408 4.6281481-1.3207408 2.3485185 0 4.112963.5035185 5.2955556 1.5092593 1.182037 1.0061111 1.7901852 2.3898148 1.8233333 4.1511111h-2.6662963c-.0838889-1.1574074-.4653704-2.0087037-1.1446296-2.5531482-.6785185-.5451851-1.7735185-.8179629-3.2822222-.8179629-1.1740741 0-2.070926.2174074-2.6920371.6540741-.6203704.4357407-.9307407 1.0562963-.9307407 1.8614814 0 .8214815.2772222 1.4422223.8307407 1.8616667.5531482.4524074 1.5762963.837963 3.0685185 1.1568519l1.5596297.327037c2.0457407.4357407 3.5172222 1.0648148 4.4146296 1.8862963.8975926.8222222 1.3457407 1.9292592 1.3457407 3.3211111 0 1.6601852-.6166666 2.9681481-1.849074 3.9233333-1.2322223.9564815-2.9383334 1.4338889-5.1185186 1.4338889-2.3646296 0-4.205-.5361111-5.5218518-1.6098148"/><path d="m26.1148148 28.3512963h2.5153704v-12.9798148h-2.5153704zm-.025-14.8157407h2.5657408v-2.6914815h-2.5657408z" mask="url(#a)"/><path d="m39.5506852 25.1191852c.6787037-.8135185 1.0188889-1.9244445 1.0188889-3.3333333 0-1.4081482-.3401852-2.5190741-1.0188889-3.3325926-.6787037-.8135186-1.6055556-1.22-2.7796296-1.22-1.1568519 0-2.0796297.4107407-2.7668519 1.2322222-.687963.8214815-1.0316667 1.9287037-1.0316667 3.3203704 0 1.4088888.3437037 2.5198148 1.0316667 3.3333333.6872222.8135185 1.61 1.22 2.7668519 1.22 1.174074 0 2.1009259-.4064815 2.7796296-1.22zm1.0433333-9.7472222h2.4155556v12.5016666c0 1.777963-.5370371 3.1733334-1.61 4.1885185-1.0735185 1.0146297-2.5992593 1.5216667-4.5783334 1.5216667-1.6938888 0-3.0396296-.3857407-4.037037-1.1568518-.9981481-.7718519-1.5638889-1.8281482-1.6988889-3.1696297h2.5155556c.2022222 1.525926 1.2837037 2.2892593 3.2455555 2.2892593 2.4320371 0 3.6477778-1.2075926 3.6477778-3.6225926v-1.4340741c-.9896296 1.3420371-2.3818518 2.0127778-4.1757407 2.0127778-1.8114815 0-3.2535186-.6124074-4.3275926-1.8364815-1.0888889-1.2405555-1.6344445-2.8675926-1.6344445-4.8803703 0-2.0120371.5455556-3.6390741 1.6344445-4.8794445 1.074074-1.2242593 2.5074074-1.8366667 4.3025926-1.8366667 1.8942592 0 3.3283333.712963 4.3005555 2.1383334z" mask="url(#a)"/><path d="m55.2216296 16.2646481c.805.7962963 1.2077778 1.9244445 1.2077778 3.3835186v8.7031481h-2.5155555v-8.3512963c0-1.8109259-.9140741-2.7164815-2.7422223-2.7164815-.8385185 0-1.5933333.3181482-2.264074.955926-.6705556.654074-1.005926 1.5846296-1.005926 2.7918518v7.32h-2.5153703v-17.9101852h2.5153703v6.7166667c.9894445-1.3922222 2.3142593-2.087963 3.9744445-2.087963 1.4253703 0 2.5411111.3985186 3.3455555 1.1948148" mask="url(#a)"/><path d="m64.7522407 17.434537h-2.6164814v7.7975926c0 .3862963.1133333.6670371.3401851.8431482.2257408.1759259.6075926.2640741 1.1440741.2640741h1.1322222v2.0122222c-.5533333.0509259-1.0655555.0759259-1.5351851.0759259-1.2233334 0-2.1298149-.2353704-2.7162963-.705-.5866667-.4690741-.8803704-1.2237037-.8803704-2.2633333v-8.0246297h-2.0874074v-2.0629629h2.0874074v-3.7231482h2.5153704v3.7231482h2.6164814z" mask="url(#a)"/><path d="m73.9823889 19.3712963c1.1237037 0 1.9792592-.2807407 2.5662963-.842963.5866667-.5614814.8803704-1.3707407.8803704-2.427037 0-1.057037-.2937037-1.87-.8803704-2.44-.5870371-.5703704-1.4425926-.8553704-2.5662963-.8553704h-4.88v6.5653704zm.0507407-8.93c1.9448148 0 3.455.5077778 4.5277778 1.5216667 1.072963 1.0146296 1.6098148 2.394074 1.6098148 4.1383333 0 1.7268518-.5368518 3.0983333-1.6098148 4.112963-1.0727778 1.014074-2.582963 1.5216666-4.5277778 1.5216666h-4.9307407v6.6157408h-2.692037v-17.9103704z" mask="url(#a)"/><path d="m81.597037 28.3514815h2.5161111v-17.9101852h-2.5161111z" mask="url(#a)"/><path d="m93.4653519 25.7857778c.7044444-.6031482 1.0562962-1.4590741 1.0562962-2.5655556v-1.3587037c-.3181481.2685185-.8546296.4444445-1.6098148.527963l-1.8112963.2016666c-.9724074.1175926-1.6679629.3475926-2.0874074.6914815-.4192592.3438889-.6288889.8264815-.6288889 1.4468519s.2053704 1.1024074.6168519 1.4461111c.4098148.3440741 1.0096296.5157407 1.7981481.5157407 1.0731482 0 1.9616667-.3016666 2.6661112-.9055555zm4.9303703.6285185v1.9372222c-.3685185.0509259-.7792592.0761111-1.2322222.0761111-.805 0-1.4046296-.1472222-1.7981481-.4409259-.3942593-.2937037-.6333334-.7583333-.7174075-1.3959259-.8724074 1.375-2.2814814 2.0624074-4.2261111 2.0624074-1.4251852 0-2.5531481-.3390741-3.3833333-1.0183333-.8301852-.6792593-1.245-1.6227778-1.245-2.8305556 0-2.3474074 1.6262963-3.6888889 4.88-4.0248148l1.9114815-.2011111c.6707407-.0833334 1.1618518-.2555556 1.4711111-.515.3105555-.2598148.4655555-.6331482.4655555-1.1194445 0-.654074-.2046296-1.1279629-.6155555-1.4216666-.4112963-.2937037-1.0942593-.4401852-2.0505556-.4401852-1.0392592 0-1.7859259.1716666-2.239074.5155555-.4525926.3440741-.7122223.9520371-.7790741 1.8238889h-2.4903704c.1838889-2.9011111 2.0207408-4.3514815 5.5085185-4.3514815 3.4214815 0 5.1320371 1.2744445 5.1320371 3.822963v6.8675926c0 .4359259.234074.6537037.7042592.6537037z" mask="url(#a)"/><path d="m109.516778 16.2646481c.804444.7962963 1.207407 1.9244445 1.207407 3.3835186v8.7031481h-2.515555v-8.3512963c0-1.8109259-.91426-2.7164815-2.742408-2.7164815-.837778 0-1.592778.3181482-2.263518.955926-.670556.654074-1.006482 1.5846296-1.006482 2.7918518v7.32h-2.5153701v-12.9798148h2.4155551v1.9372222c.988889-1.4922222 2.347223-2.2388889 4.074445-2.2388889 1.425926 0 2.540926.3985186 3.345926 1.1948148" mask="url(#a)"/></g></g></svg>