<svg xmlns="http://www.w3.org/2000/svg" width="3584" height="1800" viewBox="0 0 3584 1800" version="1.1"><path d="M 2839 311.001 L 2839 325.002 2917.254 364.125 L 2995.508 403.248 3073.754 364.123 L 3152 324.997 3152 310.999 C 3152 303.299, 3151.662 297.025, 3151.250 297.055 C 3150.838 297.085, 3115.625 314.580, 3073 335.931 L 2995.500 374.753 2917.753 335.876 C 2874.991 314.494, 2839.779 297, 2839.503 297 C 2839.226 297, 2839 303.300, 2839 311.001 M 2839 364.835 L 2839 378.670 2995.002 456.335 C 3080.804 499.051, 3151.241 534, 3151.530 534 C 3151.819 534, 3151.930 527.705, 3151.777 520.011 L 3151.500 506.022 2996 428.520 C 2910.475 385.894, 2840.162 351.014, 2839.750 351.009 C 2839.338 351.004, 2839 357.226, 2839 364.835 M 3085.750 383.056 C 3050.688 400.627, 3022 415.227, 3022 415.500 C 3022 416.162, 3149.701 480, 3151.025 480 C 3151.697 480, 3151.959 475.208, 3151.778 466.250 L 3151.500 452.500 3114.514 433.871 L 3077.528 415.241 3114.764 396.618 L 3152 377.995 3152 364.497 C 3152 354.337, 3151.691 351.014, 3150.750 351.055 C 3150.063 351.085, 3120.813 365.486, 3085.750 383.056 M 2839 419.002 L 2839 433.004 2875.500 451.245 C 2895.575 461.278, 2912 469.718, 2912 470 C 2912 470.282, 2895.575 478.722, 2875.500 488.755 L 2839 506.996 2839 520.998 C 2839 528.699, 2839.224 535, 2839.498 535 C 2840.484 535, 2969 470.495, 2969 470 C 2969 469.505, 2840.484 405, 2839.498 405 C 2839.224 405, 2839 411.301, 2839 419.002 M 2917.250 521.373 L 2839 560.494 2839 574.247 C 2839 582.733, 2839.382 588, 2839.998 588 C 2840.547 588, 2875.762 570.619, 2918.253 549.376 L 2995.509 510.752 3072.752 549.376 C 3115.235 570.619, 3150.446 588, 3150.997 588 C 3151.619 588, 3152 582.772, 3152 574.247 L 3152 560.494 3073.750 521.373 L 2995.500 482.252 2917.250 521.373" stroke="none" fill="#bc3ce4" fill-rule="evenodd"/><path d="M 1215.003 663.250 C 1215.006 832.415, 1215.362 925.467, 1216.038 933 C 1227.644 1062.494, 1319.909 1171.288, 1445 1202.981 C 1475.470 1210.700, 1492.637 1212.385, 1541.500 1212.449 L 1580.500 1212.500 1580.755 1120.831 L 1581.010 1029.161 1541.755 1028.712 C 1510.076 1028.350, 1501.183 1027.949, 1495.676 1026.632 C 1446.481 1014.867, 1411.955 980.215, 1400.390 931 C 1398.806 924.258, 1398.591 915.744, 1398.268 846.750 L 1397.908 770 1488.954 770 L 1580 770 1580 678.500 L 1580 587 1489 587 L 1398 587 1398 496 L 1398 405 1306.500 405 L 1215 405 1215.003 663.250 M 1875 575.574 C 1873.075 575.790, 1866.775 576.467, 1861 577.077 C 1806.579 582.831, 1751.958 604.617, 1706.664 638.636 C 1644.292 685.481, 1601.171 753.304, 1585.631 829.004 C 1580.868 852.205, 1579.634 865.450, 1579.625 893.500 C 1579.616 922.044, 1580.831 934.472, 1586.067 959.370 C 1613.120 1088.011, 1719.059 1188.242, 1848.859 1208.003 C 1869.869 1211.201, 1888.106 1211.980, 1942.250 1211.990 L 1994 1212 1994 1120.559 L 1994 1029.118 1936.250 1028.731 C 1873.038 1028.307, 1874.187 1028.403, 1854.500 1021.869 C 1834.384 1015.192, 1817.830 1004.829, 1801.995 989.001 C 1782.344 969.357, 1769.755 945.725, 1764.355 918.339 C 1761.738 905.069, 1761.970 880.667, 1764.840 867.266 C 1770.456 841.040, 1782.189 818.971, 1800.611 799.987 C 1854.265 744.694, 1940.735 744.694, 1994.389 799.987 C 2012.554 818.708, 2024.127 840.286, 2030.195 866.756 L 2032.429 876.500 2032.740 1044.293 L 2033.051 1212.086 2159.775 1211.730 C 2295.235 1211.350, 2289.748 1211.535, 2318 1206.391 C 2393.794 1192.591, 2468.170 1150.185, 2517.751 1092.500 C 2522.952 1086.450, 2527.519 1081.500, 2527.901 1081.500 C 2528.284 1081.500, 2532.680 1086.225, 2537.671 1092 C 2587.330 1149.458, 2656.222 1189.742, 2730.839 1204.952 C 2756.770 1210.238, 2767.625 1211.228, 2805.250 1211.739 L 2840 1212.211 2840 1120.699 L 2840 1029.187 2807.750 1028.761 C 2779.385 1028.387, 2774.189 1028.068, 2764.621 1026.107 C 2729.448 1018.900, 2702.116 1004.234, 2676.941 979.059 C 2661.747 963.866, 2652.313 950.831, 2643.928 933.446 C 2638.794 922.803, 2631.989 903.522, 2632.015 899.693 C 2632.041 895.835, 2639.693 874.572, 2644.545 864.878 C 2661.552 830.895, 2687.276 805.053, 2720.500 788.575 C 2749.727 774.080, 2771.375 770.073, 2820.755 770.021 L 2840.011 770 2839.755 678.750 L 2839.500 587.500 2809 587.649 C 2758.325 587.896, 2726.544 592.899, 2685.254 607.129 C 2627.772 626.939, 2571.535 665.821, 2533.132 712.306 L 2527.509 719.112 2525.669 716.806 C 2512.822 700.711, 2492.503 680.395, 2474.717 665.863 C 2422.077 622.851, 2357.567 596.225, 2288.500 589.004 C 2283 588.428, 2264.213 587.672, 2246.750 587.323 L 2215 586.688 2215 678.344 L 2215 770 2234.250 770.021 C 2259.563 770.048, 2280.584 771.470, 2292.964 773.993 C 2344.792 784.555, 2389.333 819.453, 2411.975 867.241 C 2417.610 879.133, 2423.169 895.167, 2423.161 899.500 C 2423.151 904.167, 2417.475 920.333, 2411.398 933 C 2391.559 974.354, 2356.355 1005.251, 2312.292 1019.983 C 2292.262 1026.680, 2281.103 1028.162, 2246.318 1028.742 L 2216.136 1029.245 2215.716 947.372 C 2215.263 858.855, 2215.180 857.308, 2209.369 829.004 C 2193.829 753.305, 2150.708 685.481, 2088.336 638.636 C 2044.229 605.509, 1994.729 585.298, 1938.500 577.458 C 1928.122 576.011, 1883.023 574.673, 1875 575.574 M 950.175 588.127 C 899.997 592.251, 854.163 619.724, 825.261 663 C 805.180 693.069, 794.800 733.105, 797.959 768.311 C 799.909 790.043, 805.568 810.216, 814.957 828.903 C 817.609 834.182, 840.308 875.829, 865.398 921.453 C 890.489 967.077, 911.450 1005.970, 911.978 1007.883 C 914.138 1015.707, 908.480 1025.341, 900.283 1027.797 C 897.230 1028.712, 859.221 1029, 741.634 1029 L 587 1029 587 1120.527 L 587 1212.055 776.250 1211.722 C 964.731 1211.390, 965.545 1211.380, 976.514 1209.253 C 1041.956 1196.561, 1092.873 1148.653, 1109.014 1084.584 C 1113.201 1067.960, 1114.356 1056.279, 1113.700 1037.154 C 1112.876 1013.086, 1108.459 994.557, 1098.527 973.500 C 1096.193 968.550, 1073.072 926.046, 1047.148 879.046 C 1021.225 832.047, 999.728 792.066, 999.378 790.200 C 998.082 783.295, 1002.075 775.680, 1008.723 772.377 C 1012.310 770.594, 1016.616 770.486, 1094.250 770.217 L 1176 769.933 1176 678.467 L 1176 587 1068.250 587.139 C 1008.987 587.216, 955.854 587.660, 950.175 588.127" stroke="none" fill="#042434" fill-rule="evenodd"/></svg>