<?xml version="1.0" encoding="utf-8"?>
<!-- Generator: Adobe Illustrator 27.5.0, SVG Export Plug-In . SVG Version: 6.00 Build 0)  -->
<svg version="1.1" xmlns="http://www.w3.org/2000/svg" xmlns:xlink="http://www.w3.org/1999/xlink" x="0px" y="0px"
	 viewBox="0 0 655.6 128.9" style="enable-background:new 0 0 655.6 128.9;" xml:space="preserve">
<style type="text/css">
	.st0{fill:#FFCC33;}
	.st1{fill:#00ADEF;}
	.st2{fill:#FF4B23;}
	.st3{fill:#231F20;}
</style>
<symbol  id="Thumbprint_full_color" viewBox="-110 -117.1 216.3 234.2">
	<polygon class="st0" points="52.2,117.1 106.3,85.9 52.2,54.6 -1.8,85.9 	"/>
	<polygon class="st0" points="-55.9,54.6 -1.8,23.4 -55.9,-7.8 -110,23.4 	"/>
	<polygon class="st1" points="106.3,85.9 106.3,39 52.2,7.8 52.2,54.6 	"/>
	<polygon class="st1" points="52.2,7.8 -1.8,-23.4 -1.8,-117.1 52.2,-85.9 	"/>
	<polygon class="st2" points="-55.9,-7.8 -55.9,-54.6 -110,-23.4 -110,23.4 	"/>
</symbol>
<g id="background">
</g>
<g id="Layer_1">
	<g>
		<g>
			<g>
				<path class="st3" d="M161.4,67.6H153V56.3h3.6c4.2,0,6.6-2.4,6.6-6.5V42h11.9v13.1H187v12.5h-11.9v22.6c0,4.8,3,7.7,7.7,7.7
					c2.4,0,3.6-0.6,3.6-0.6v11.9c0,0-3,1.2-6.5,1.2c-10.7,0-18.5-7.7-18.5-19.6V67.6z"/>
				<path class="st3" d="M193.5,34.9h13.7v25.6c0,0,4.8-6,15.5-6c11.9,0,20.8,8.9,20.8,23.2v32.2h-13.7V79.5
					c0-7.1-4.8-11.9-11.3-11.9c-6.5,0-11.3,4.8-11.3,11.9v30.4h-13.7V34.9z"/>
				<path class="st3" d="M251.3,55.1H265v30.4c0,7.1,4.8,11.9,11.3,11.9c6.6,0,11.3-4.8,11.3-11.9V55.1h13.7v54.8h-10.1l-2.4-5.4
					c0,0-6.5,6-15.5,6c-13.1,0-22-8.9-22-23.2V55.1z"/>
				<path class="st3" d="M309.6,55.1h10.1l2.4,5.4c0,0,5.4-6,13.1-6c11.3,0,15.5,7.1,15.5,7.1s6.5-7.1,16.1-7.1
					c11.9,0,19.6,7.7,19.6,22.6v32.7h-13.7V78.3c0-6.5-4.2-10.7-8.9-10.7s-8.9,4.2-8.9,10.7v31.6h-13.7V78.3
					c0-6.5-4.2-10.7-8.9-10.7c-4.8,0-8.9,4.2-8.9,10.7v31.6h-13.7V55.1z"/>
				<path class="st3" d="M394.2,34.9h13.7v25c0,0,5.4-5.4,14.3-5.4c13.7,0,25.6,11.9,25.6,28s-11.9,28-25.6,28c-9.5,0-15.5-6-15.5-6
					l-2.4,5.4h-10.1V34.9z M434.1,82.5c0-8.9-6-14.9-13.7-14.9c-7.7,0-13.7,6-13.7,14.9c0,8.9,6,14.9,13.7,14.9
					C428.1,97.4,434.1,91.4,434.1,82.5z"/>
				<path class="st3" d="M453.1,55.1h10.1l2.4,5.4c0,0,6-6,15.5-6c13.7,0,25.6,11.9,25.6,28s-11.9,28-25.6,28
					c-8.9,0-14.3-5.4-14.3-5.4v23.8h-13.7V55.1z M493,82.5c0-8.9-6-14.9-13.7-14.9c-7.7,0-13.7,6-13.7,14.9c0,8.9,6,14.9,13.7,14.9
					C487.1,97.4,493,91.4,493,82.5z"/>
				<path class="st3" d="M512.1,55.1h10.1l2.4,6c0,0,4.8-6.5,13.1-6.5c2.4,0,4.2,0.6,4.2,0.6v14.3c0,0-1.8-0.6-4.8-0.6
					c-6.5,0-11.3,4.8-11.3,11.9v29.2h-13.7V55.1z"/>
				<path class="st3" d="M546,55.1l13.7,8.7v46.1H546V55.1z"/>
				<path class="st3" d="M568.1,55.1h10.1l2.4,5.4c0,0,6.6-6,15.5-6c13.1,0,22,8.9,22,23.2v32.2h-13.7V79.5
					c0-7.1-4.8-11.9-11.3-11.9c-6.5,0-11.3,4.8-11.3,11.9v30.4h-13.7V55.1z"/>
				<path class="st3" d="M630,67.6h-8.3V56.3h3.6c4.2,0,6.6-2.4,6.6-6.5V42h11.9v13.1h11.9v12.5h-11.9v22.6c0,4.8,3,7.7,7.7,7.7
					c2.4,0,3.6-0.6,3.6-0.6v11.9c0,0-3,1.2-6.5,1.2c-10.7,0-18.5-7.7-18.5-19.6V67.6z"/>
				<polygon class="st0" points="559.2,36.8 546.5,43.1 546.5,54.5 559.2,48.1 				"/>
			</g>
		</g>
		
			<use xlink:href="#Thumbprint_full_color"  width="216.3" height="234.2" x="-110" y="-117.1" transform="matrix(0.5507 0 0 -0.5507 60.562 64.4685)" style="overflow:visible;"/>
	</g>
</g>
</svg>
