<svg xmlns="http://www.w3.org/2000/svg" width="2493" height="417" viewBox="0 0 2493 417" version="1.1"><path d="M 1407.500 93.111 C 1385.500 111.258, 1367.050 126.597, 1366.500 127.199 C 1365.596 128.189, 1390.854 109.235, 1436.185 74.905 C 1448.630 65.480, 1452.581 61.981, 1451.735 61.135 C 1451.111 60.511, 1449.902 60.027, 1449.050 60.059 C 1448.197 60.092, 1429.500 74.965, 1407.500 93.111 M 1259.500 82.173 C 1212.140 107.253, 1201.637 113.616, 1198.072 119.384 C 1193.645 126.547, 1196.256 135.801, 1203.942 140.191 L 1207.985 142.500 1207.992 168.750 L 1208 195 1199.648 195 C 1192.600 195, 1190.765 195.357, 1187.898 197.289 L 1184.500 199.579 1184.236 231.837 L 1183.972 264.094 1180.585 267.481 C 1175.970 272.096, 1174.515 276.889, 1174.507 287.500 C 1174.498 298.851, 1176.934 304.519, 1184 309.596 C 1187.659 312.224, 1188.640 313.498, 1188.350 315.245 C 1186.478 326.498, 1180.186 383.574, 1180.758 384.106 C 1181.827 385.099, 1203.316 388.711, 1218.500 390.449 C 1230.893 391.868, 1264.158 393.984, 1274.250 393.995 L 1279 394 1279 355 C 1279 333.550, 1279.338 315.982, 1279.750 315.960 C 1282.312 315.822, 1346.285 307.188, 1345.365 307.104 C 1344.741 307.047, 1331.916 305.421, 1316.865 303.492 C 1294.401 300.612, 1242.754 295, 1238.714 295 C 1238.138 295, 1237.854 294.815, 1238.083 294.589 C 1238.312 294.363, 1246.150 293.446, 1255.500 292.552 C 1281.327 290.081, 1279 290.876, 1279 284.522 C 1279 280.239, 1279.359 279.037, 1280.750 278.660 C 1281.713 278.399, 1298.155 276.462, 1317.289 274.356 C 1336.423 272.249, 1351.723 270.413, 1351.289 270.275 C 1349.557 269.726, 1296.748 264.020, 1268.782 261.361 C 1252.437 259.807, 1239.387 258.252, 1239.782 257.906 C 1240.377 257.385, 1273.694 253.946, 1277.750 253.987 C 1278.697 253.997, 1279 250.240, 1279 238.500 C 1279 229.975, 1279.112 222.983, 1279.250 222.962 C 1279.388 222.941, 1297.050 220.766, 1318.500 218.129 C 1346.882 214.640, 1356.411 213.158, 1353.500 212.685 C 1351.300 212.327, 1339.375 210.869, 1327 209.445 C 1314.625 208.020, 1303.692 206.545, 1302.705 206.167 C 1301.519 205.714, 1306.610 203.787, 1317.705 200.490 L 1334.500 195.500 1322.250 195.219 L 1310 194.938 1310 168.001 L 1310 141.063 1321.579 140.782 L 1333.157 140.500 1306.329 132.482 L 1279.500 124.465 1279.224 108.021 C 1279.073 98.977, 1279.144 91.068, 1279.382 90.447 C 1279.693 89.637, 1281.720 89.572, 1286.544 90.219 C 1293.826 91.194, 1304.356 96.027, 1328 109.243 C 1343.517 117.917, 1351.747 123.629, 1352.600 126.314 C 1353.459 129.022, 1350.059 131.807, 1344.880 132.635 L 1341 133.256 1341 169.096 L 1341 204.937 1352.750 205.218 L 1364.500 205.500 1364.763 238.645 L 1365.027 271.790 1367.544 272.422 C 1370.843 273.250, 1373.600 277.927, 1374.416 284.078 C 1375.757 294.187, 1371.039 302.330, 1363.106 303.599 C 1360.848 303.960, 1358.994 304.536, 1358.987 304.878 C 1358.958 306.307, 1368.113 381.697, 1368.575 383.831 C 1369.036 385.966, 1369.433 386.105, 1373.289 385.478 C 1375.605 385.102, 1377.812 384.503, 1378.194 384.147 C 1378.739 383.639, 1373.085 333.111, 1370.565 315.965 C 1370.088 312.724, 1370.342 312.271, 1373.618 310.506 C 1381.300 306.369, 1385.738 295.803, 1384.656 284.224 C 1383.972 276.900, 1380.049 267.632, 1376.924 265.959 C 1375.088 264.977, 1374.999 263.475, 1374.978 233.215 C 1374.958 204.676, 1374.783 201.286, 1373.228 199.367 C 1370.399 195.875, 1367.563 195, 1359.066 195 L 1351 195 1351 168.520 L 1351 142.041 1354.936 140.033 C 1360.676 137.104, 1363.879 131.293, 1362.988 125.423 C 1361.653 116.622, 1352.489 110.032, 1313 89.477 C 1301.725 83.608, 1289.757 77.274, 1286.404 75.403 C 1283.051 73.531, 1279.901 72.025, 1279.404 72.056 C 1278.907 72.086, 1269.950 76.639, 1259.500 82.173 M 1682.500 118.087 C 1671.916 121.317, 1577.677 141.022, 1556.199 144.497 C 1551.603 145.241, 1550.888 147.317, 1555.077 147.751 C 1557.709 148.025, 1689.732 128.601, 1690.506 127.827 C 1691.085 127.248, 1686.821 116.966, 1686.052 117.086 C 1685.748 117.133, 1684.150 117.584, 1682.500 118.087 M 1218 168 C 1218 185.333, 1218.358 195, 1219 195 C 1219.642 195, 1220 185.333, 1220 168 C 1220 150.667, 1219.642 141, 1219 141 C 1218.358 141, 1218 150.667, 1218 168 M 1226 168 C 1226 185.333, 1226.358 195, 1227 195 C 1227.642 195, 1228 185.333, 1228 168 C 1228 150.667, 1227.642 141, 1227 141 C 1226.358 141, 1226 150.667, 1226 168 M 1239 168 L 1239 195 1244 195 L 1249 195 1249 168 L 1249 141 1244 141 L 1239 141 1239 168 M 1259 168 L 1259 195 1279.500 195 L 1300 195 1300 168 L 1300 141 1279.500 141 L 1259 141 1259 168 M 1482.500 157.504 C 1466 160.421, 1453.279 162.851, 1454.231 162.904 C 1455.887 162.996, 1507.541 155.550, 1513.250 154.397 C 1516.260 153.789, 1517.065 151.939, 1514.250 152.100 C 1513.287 152.155, 1499 154.587, 1482.500 157.504 M 868.601 161.666 C 868.975 163.225, 869.461 164.705, 869.680 164.956 C 870.320 165.688, 938.969 169.458, 990.750 171.605 L 1007 172.278 1007 169.827 L 1007 167.375 984.250 166.141 C 946.416 164.088, 880.908 160.104, 874.210 159.448 L 867.920 158.832 868.601 161.666 M 1040 170.905 C 1040 172.396, 1040.832 173.039, 1043.250 173.415 C 1046.282 173.886, 1111.728 175.505, 1163 176.378 C 1191.335 176.860, 1188.092 176.641, 1113 173.011 C 1079.175 171.376, 1048.912 169.782, 1045.750 169.469 C 1040.473 168.947, 1040 169.066, 1040 170.905 M 1107 234.868 C 1053.950 258.813, 1043.500 263.856, 1043.500 265.515 C 1043.500 266.607, 1043.950 267.419, 1044.500 267.321 C 1045.579 267.127, 1167.548 208.938, 1170.636 207.144 C 1176.772 203.578, 1163.840 209.212, 1107 234.868 M 763.500 229.054 C 637.550 240.519, 534.388 249.922, 534.250 249.949 C 533.282 250.145, 534.249 256.002, 535.250 256.010 C 539.416 256.044, 995.056 209.775, 997.500 209.070 C 1000.422 208.227, 1000.395 208.204, 996.500 208.207 C 994.300 208.209, 889.450 217.590, 763.500 229.054 M 1594 227.139 C 1594 227.612, 1594.338 228.006, 1594.750 228.014 C 1595.162 228.022, 1629.700 233.458, 1671.500 240.095 C 1713.300 246.732, 1752.225 252.867, 1758 253.729 C 1763.775 254.590, 1796.828 259.700, 1831.450 265.083 C 1866.073 270.466, 1894.761 274.648, 1895.200 274.376 C 1896.537 273.550, 1896.093 271, 1894.612 271 C 1892.929 271, 1770.983 252.603, 1759 250.541 C 1754.325 249.736, 1747.800 248.805, 1744.500 248.470 C 1739.755 247.989, 1605.216 228.199, 1596.250 226.663 C 1595.013 226.451, 1594 226.665, 1594 227.139 M 254.500 275.048 C 220.400 278.245, 191.488 280.892, 190.250 280.930 C 188.226 280.993, 188 281.502, 188 286 C 188 289.253, 188.424 291, 189.213 291 C 191.652 291, 321.569 277.908, 323.750 277.442 C 325.626 277.042, 326 276.300, 326 272.981 L 326 269 321.250 269.118 C 318.637 269.182, 288.600 271.851, 254.500 275.048 M 1980.605 285.587 C 1980.236 286.548, 1980.287 287.629, 1980.717 287.988 C 1981.148 288.348, 2034.150 296.845, 2098.500 306.871 L 2215.500 325.100 2233.500 324.800 L 2251.500 324.500 2118 304.582 C 2044.575 293.627, 1983.775 284.478, 1982.888 284.251 C 1981.995 284.023, 1980.977 284.619, 1980.605 285.587 M 897.823 328.925 C 871.051 340.949, 846.602 351.951, 843.492 353.375 L 837.838 355.964 840.043 359.061 C 841.256 360.764, 842.801 362.370, 843.476 362.629 C 844.780 363.130, 949.325 313.575, 949.720 312.269 C 949.848 311.846, 949.176 310.502, 948.226 309.282 L 946.500 307.064 897.823 328.925" stroke="none" fill="#e8e017" fill-rule="evenodd"/><path d="M 1241.500 24.608 C 1239.300 24.817, 1232.325 25.468, 1226 26.054 C 1169.208 31.323, 1124.553 46.303, 1093.470 70.511 C 1066.544 91.482, 1049.471 119.712, 1042.395 154.961 C 1040.945 162.183, 1040.030 168.363, 1040.361 168.694 C 1040.692 169.025, 1061.333 170.347, 1086.231 171.631 C 1111.129 172.916, 1143.650 174.612, 1158.500 175.401 L 1185.500 176.834 1161 176.396 C 1135.842 175.946, 1061.780 174.226, 1047.500 173.761 L 1039.500 173.500 1039.224 188.688 L 1038.949 203.876 1042.724 204.270 L 1046.500 204.664 1042.750 204.832 L 1039 205 1039 222.966 C 1039 233.856, 1039.619 245.371, 1040.572 252.205 C 1041.437 258.405, 1042.248 263.582, 1042.375 263.709 C 1042.502 263.835, 1071.581 250.914, 1106.995 234.995 C 1142.409 219.075, 1171.525 206.192, 1171.698 206.365 C 1172.153 206.820, 1044.754 267.543, 1043.896 267.280 C 1043.501 267.158, 1043.614 268.733, 1044.148 270.780 C 1056.538 318.267, 1087.133 351.492, 1136.843 371.443 C 1154.141 378.385, 1181.263 385.972, 1180.463 383.645 C 1180.247 383.015, 1182.015 366.975, 1184.392 348 L 1188.713 313.500 1186.108 311.500 C 1176.638 304.231, 1173.354 296.729, 1174.280 284.486 C 1174.922 275.997, 1176.903 270.827, 1180.970 267.028 L 1183.972 264.224 1184.236 231.901 L 1184.500 199.579 1187.898 197.289 C 1190.765 195.357, 1192.600 195, 1199.648 195 L 1208 195 1207.992 168.750 L 1207.985 142.500 1203.942 140.191 C 1198.744 137.222, 1196.009 132.718, 1196.004 127.118 C 1195.995 116.688, 1202.109 112.337, 1258 83.003 L 1279.500 71.719 1285.500 74.981 C 1288.800 76.775, 1300.950 83.172, 1312.500 89.196 C 1352.621 110.122, 1361.649 116.600, 1362.988 125.423 C 1363.879 131.293, 1360.676 137.104, 1354.936 140.033 L 1351 142.041 1351 168.520 L 1351 195 1359.066 195 C 1367.563 195, 1370.399 195.875, 1373.228 199.367 C 1374.783 201.286, 1374.958 204.676, 1374.978 233.215 C 1374.999 263.475, 1375.088 264.977, 1376.924 265.959 C 1380.049 267.632, 1383.972 276.900, 1384.656 284.224 C 1385.738 295.803, 1381.300 306.369, 1373.618 310.506 C 1370.342 312.271, 1370.088 312.724, 1370.565 315.965 C 1372.531 329.341, 1378.786 383.538, 1378.430 384.114 C 1377.854 385.045, 1387.860 382.696, 1401 378.816 C 1476.508 356.519, 1517.181 306.684, 1519.695 233.384 L 1520.282 216.269 1514.391 215.190 L 1508.500 214.112 1514.250 214.628 L 1520 215.144 1520 197.123 C 1520 180.230, 1517.867 156.461, 1516.203 154.808 C 1515.817 154.424, 1502.225 156.101, 1486 158.535 C 1469.775 160.969, 1455.600 162.927, 1454.500 162.887 C 1453.400 162.846, 1466.664 160.353, 1483.976 157.347 C 1501.288 154.341, 1515.579 151.754, 1515.735 151.599 C 1515.890 151.444, 1514.634 146.633, 1512.944 140.908 C 1509.175 128.141, 1501.842 112.501, 1494.273 101.086 C 1487.220 90.450, 1470.234 73.350, 1459.500 66.080 C 1455.100 63.100, 1451.817 61.017, 1452.204 61.451 C 1452.591 61.886, 1445.391 67.934, 1436.204 74.891 C 1388.285 111.180, 1365.703 128.072, 1367.500 126.284 C 1371.343 122.460, 1447.513 60.317, 1448.926 59.852 C 1451.162 59.116, 1424.806 46.544, 1411.521 42.008 C 1396.758 36.968, 1384.553 33.844, 1367 30.612 C 1340.307 25.696, 1328.182 24.787, 1285.500 24.499 C 1263.500 24.351, 1243.700 24.400, 1241.500 24.608 M 534 141.030 L 534 250.123 538.250 249.543 C 547.897 248.228, 997.621 207.985, 999 208.314 C 999.825 208.511, 998.925 208.967, 997 209.327 C 993.672 209.950, 537.869 256.032, 535.250 256.010 C 534.263 256.002, 534 269.661, 534 321 L 534 386 603 386 L 672 386 672 343 L 672 300 733.250 300.046 L 794.500 300.092 815.975 328.054 C 827.787 343.433, 837.747 355.900, 838.109 355.758 C 847.205 352.188, 945.952 307.251, 945.971 306.672 C 945.987 306.217, 942.621 301.532, 938.490 296.260 L 930.980 286.675 938.240 282.741 C 949.931 276.406, 957.839 270.358, 968.530 259.579 C 990.802 237.124, 1003.853 209.771, 1006.562 179.873 L 1007.251 172.278 990.375 171.595 C 952.122 170.046, 878.163 166.211, 872.876 165.502 C 869.290 165.022, 869.246 165.060, 868.581 169.216 C 866.944 179.453, 860.429 188.376, 851.500 192.610 L 846.500 194.980 759.250 194.990 L 672 195 672 165.468 L 672 135.937 758.750 136.218 L 845.500 136.500 850.599 138.808 C 856.897 141.659, 863.243 147.999, 865.956 154.152 C 868.450 159.808, 863.564 159.080, 922 162.513 C 945.375 163.886, 971.700 165.457, 980.500 166.003 C 989.300 166.550, 998.862 166.997, 1001.750 166.998 L 1007 167 1006.996 159.750 C 1006.979 128.968, 992.550 96.423, 968.064 71.936 C 948.420 52.292, 928.176 41.259, 899.777 34.718 C 890.517 32.586, 890.169 32.581, 712.250 32.259 L 534 31.937 534 141.030 M 24 89 L 24 145 105.500 145 L 187 145 187 265.500 L 187 386 256.500 386 L 326 386 326 331.563 L 326 277.126 322.750 277.596 C 318.792 278.170, 191.010 290.999, 189.250 290.999 C 188.421 291, 188 289.361, 188 286.139 L 188 281.279 192.750 280.744 C 195.362 280.450, 226.412 277.599, 261.750 274.409 L 326 268.610 326 206.805 L 326 145 407.500 145 L 489 145 489 89 L 489 33 256.500 33 L 24 33 24 89 M 1503.274 51.250 C 1508.470 61.288, 1521.413 86.527, 1532.038 107.337 L 1551.357 145.174 1555.928 144.503 C 1566.474 142.957, 1628.509 130.432, 1653.500 124.804 C 1668.350 121.459, 1681.549 118.501, 1682.832 118.229 C 1684.115 117.958, 1685.363 117.217, 1685.606 116.584 C 1685.849 115.950, 1678.120 97.447, 1668.431 75.466 C 1658.741 53.485, 1650.582 34.938, 1650.300 34.250 C 1649.895 33.265, 1633.250 33, 1571.807 33 L 1493.829 33 1503.274 51.250 M 1815.629 142.099 C 1789.301 202.082, 1768.151 251.493, 1768.629 251.902 C 1769.108 252.311, 1797.850 256.842, 1832.500 261.971 C 1867.150 267.100, 1895.728 271.641, 1896.007 272.063 C 1896.401 272.661, 2017.459 38.002, 2018.833 33.976 C 2019.048 33.347, 1991.542 33.007, 1941.333 33.019 L 1863.500 33.038 1815.629 142.099 M 2113.196 38.250 C 2111.574 41.138, 2081.334 97.438, 2045.997 163.363 C 2005.845 238.270, 1982.154 283.477, 1982.831 283.896 C 1983.427 284.264, 2044.121 293.551, 2117.707 304.533 L 2251.500 324.500 2233.135 324.773 L 2214.770 325.046 2098.635 306.961 C 2034.761 297.014, 1981.825 288.524, 1981 288.094 C 1979.808 287.473, 1974.156 297.273, 1953.500 335.775 C 1939.200 362.429, 1927.350 384.634, 1927.167 385.119 C 1926.976 385.622, 1960.188 386, 2004.667 385.999 L 2082.500 385.998 2096.207 356.249 L 2109.914 326.500 2198.109 326.500 L 2286.303 326.500 2299.933 356 L 2313.562 385.500 2391.367 385.756 C 2448.596 385.945, 2469.072 385.715, 2468.796 384.889 C 2468.590 384.271, 2426.139 304.862, 2374.461 208.425 L 2280.500 33.085 2198.323 33.043 L 2116.147 33 2113.196 38.250 M 1279.382 90.447 C 1279.144 91.068, 1279.073 98.977, 1279.224 108.021 L 1279.500 124.465 1306.329 132.482 L 1333.157 140.500 1321.579 140.782 L 1310 141.063 1310 168.001 L 1310 194.938 1322.250 195.219 L 1334.500 195.500 1317.705 200.490 C 1306.610 203.787, 1301.519 205.714, 1302.705 206.167 C 1303.692 206.545, 1314.625 208.020, 1327 209.445 C 1339.375 210.869, 1351.300 212.327, 1353.500 212.685 C 1356.411 213.158, 1346.882 214.640, 1318.500 218.129 C 1297.050 220.766, 1279.388 222.941, 1279.250 222.962 C 1279.112 222.983, 1279 229.975, 1279 238.500 C 1279 250.240, 1278.697 253.997, 1277.750 253.987 C 1273.694 253.946, 1240.377 257.385, 1239.782 257.906 C 1239.387 258.252, 1252.437 259.807, 1268.782 261.361 C 1296.748 264.020, 1349.557 269.726, 1351.289 270.275 C 1351.723 270.413, 1336.423 272.249, 1317.289 274.356 C 1298.155 276.462, 1281.713 278.399, 1280.750 278.660 C 1279.359 279.037, 1279 280.239, 1279 284.522 C 1279 290.876, 1281.327 290.081, 1255.500 292.552 C 1246.150 293.446, 1238.313 294.363, 1238.083 294.589 C 1237.854 294.815, 1238.138 295, 1238.714 295 C 1242.754 295, 1294.401 300.612, 1316.865 303.492 C 1331.916 305.421, 1344.741 307.047, 1345.365 307.104 C 1346.285 307.188, 1282.312 315.822, 1279.750 315.960 C 1279.338 315.982, 1279 333.621, 1279 355.158 L 1279 394.316 1298.250 393.648 C 1321.078 392.855, 1335.508 391.628, 1354.500 388.863 C 1362.200 387.742, 1368.575 386.752, 1368.666 386.663 C 1368.757 386.573, 1366.628 368.500, 1363.933 346.500 C 1361.239 324.500, 1359.026 305.995, 1359.017 305.378 C 1359.008 304.761, 1360.848 303.960, 1363.106 303.599 C 1371.039 302.330, 1375.757 294.187, 1374.416 284.078 C 1373.600 277.927, 1370.843 273.250, 1367.544 272.422 L 1365.027 271.790 1364.763 238.645 L 1364.500 205.500 1352.750 205.218 L 1341 204.937 1341 169.096 L 1341 133.256 1344.880 132.635 C 1350.059 131.807, 1353.459 129.022, 1352.600 126.314 C 1351.747 123.629, 1343.517 117.917, 1328 109.243 C 1304.356 96.027, 1293.826 91.194, 1286.544 90.219 C 1281.720 89.572, 1279.693 89.637, 1279.382 90.447 M 1623.500 138.113 C 1587.200 143.570, 1556.370 147.896, 1554.988 147.726 C 1552.637 147.436, 1553.315 149.051, 1565.579 172.958 C 1585.835 212.443, 1646.762 331.530, 1661.388 360.225 L 1674.500 385.951 1756.521 385.975 L 1838.543 386 1853.768 356.250 C 1862.142 339.887, 1874.994 314.800, 1882.327 300.500 L 1895.660 274.500 1892.580 274.319 C 1890.886 274.219, 1861.883 269.797, 1828.128 264.491 C 1794.373 259.185, 1766.437 255.217, 1766.047 255.672 C 1765.657 256.127, 1763.603 260.550, 1761.482 265.500 C 1759.361 270.450, 1757.356 274.831, 1757.026 275.236 C 1756.697 275.642, 1754.205 270.775, 1751.488 264.422 C 1748.772 258.069, 1746.088 252.519, 1745.525 252.090 C 1744.961 251.660, 1710.770 246.047, 1669.544 239.615 C 1628.319 233.184, 1594.381 227.715, 1594.128 227.461 C 1593.874 227.207, 1593.854 226.846, 1594.083 226.658 C 1594.313 226.470, 1628.025 231.347, 1669 237.496 C 1709.975 243.644, 1743.679 248.532, 1743.897 248.357 C 1744.677 247.733, 1691.553 128.002, 1690.537 128.095 C 1689.967 128.148, 1659.800 132.656, 1623.500 138.113 M 2197.797 137.561 C 2195.598 141.284, 2150.933 238.266, 2151.265 238.598 C 2151.497 238.830, 2172.807 238.903, 2198.620 238.760 L 2245.554 238.500 2222.828 189.500 C 2210.328 162.550, 2199.708 139.627, 2199.227 138.561 C 2198.746 137.494, 2198.102 137.044, 2197.797 137.561 M 1218 168 C 1218 185.333, 1218.358 195, 1219 195 C 1219.642 195, 1220 185.333, 1220 168 C 1220 150.667, 1219.642 141, 1219 141 C 1218.358 141, 1218 150.667, 1218 168 M 1226 168 C 1226 185.333, 1226.358 195, 1227 195 C 1227.642 195, 1228 185.333, 1228 168 C 1228 150.667, 1227.642 141, 1227 141 C 1226.358 141, 1226 150.667, 1226 168 M 1239 168 L 1239 195 1244 195 L 1249 195 1249 168 L 1249 141 1244 141 L 1239 141 1239 168 M 1259 168 L 1259 195 1279.500 195 L 1300 195 1300 168 L 1300 141 1279.500 141 L 1259 141 1259 168 M 946 314.570 C 943.525 315.802, 919.678 327.243, 893.008 339.994 C 852.721 359.255, 844.211 362.989, 842.720 362.057 C 841.733 361.441, 842.854 363.320, 845.213 366.234 C 847.571 369.147, 851.970 374.786, 854.990 378.765 L 860.479 386 933.740 386 C 974.033 386, 1006.997 385.663, 1006.993 385.250 C 1006.987 384.561, 952.735 314.246, 951.182 312.915 C 950.807 312.593, 948.475 313.338, 946 314.570" stroke="none" fill="#1c1c5c" fill-rule="evenodd"/></svg>