<?xml version="1.0" encoding="UTF-8"?>
<svg id="Layer_1" data-name="Layer 1" xmlns="http://www.w3.org/2000/svg" viewBox="0 0 2056.37 416.35">
  <defs>
    <style>
      .cls-1 {
        fill: #201e5a;
      }

      .cls-2 {
        fill: #e9df15;
      }
    </style>
  </defs>
  <g>
    <path class="cls-1" d="M726.57,309.9V171.35h-94.03V107.06h267.14v64.29h-94.03v138.55h-79.09Z"/>
    <path class="cls-1" d="M1121.54,106.91c41.81-.45,77.27,34.71,76.67,76.67,0,15.24-4.08,29.13-12.23,41.5-8,12.23-18.71,21.58-32,27.77l44.22,56.9h-84.22l-38.19-49.5h-70.63v49.5h-79.09V106.91h195.45Zm-116.37,59.32v34.56h96.44c4.83,0,8.9-1.66,12.22-4.98,3.47-3.47,5.13-7.55,5.13-12.23,0-9.66-7.7-17.36-17.36-17.36h-96.44Z"/>
    <path class="cls-1" d="M1493.72,200.78v14.79c.3,76.67-62.18,98.86-138.4,99.01-76.37-.15-138.85-22.34-138.55-99.01v-14.79c-.3-76.82,62.18-98.86,138.55-99.01,76.37,0,138.4,22.34,138.4,99.01Zm-79.09,4.83c.45-33.05-27.02-39.09-59.32-39.54-32.45,.45-59.92,6.49-59.46,39.54v4.98c-.45,33.2,27.02,39.24,59.46,39.69,32.3-.45,59.77-6.49,59.32-39.69v-4.98Z"/>
    <path class="cls-1" d="M1630.16,247.87l61.88-140.81h89.05l-103.99,202.84h-94.03l-103.84-202.84h89.05l61.88,140.81Z"/>
    <path class="cls-1" d="M1837.38,107.06h94.03l108.82,202.84h-89.05l-16-34.72h-101.57l-16,34.72h-89.05l108.82-202.84Zm19.17,118.63h55.69l-27.77-59.92-27.92,59.92Z"/>
  </g>
  <g>
    <path class="cls-1" d="M500.87,195.24v25.87c.38,98.38-58.3,145.5-142.12,163.71-3.34,.73-6.72,1.43-10.17,2.05-3.62,.66-7.28,1.29-11,1.88-2.44,.38-4.88,.77-7.38,1.15-22.5,3.06-46.39,4.46-71.08,4.49h-.63c-27.23-.04-53.42-1.74-77.94-5.5-7.59-1.15-15.04-2.51-22.29-4.07-69.37-15.11-121.43-49.94-137.21-117.15-.28-1.29-.56-2.61-.87-3.97-2.72-12.99-4.07-27.16-4.04-42.59v-25.87c-.03-7.91,.35-15.46,1.08-22.71,.1-1.43,.24-2.79,.42-4.14C31.13,55.59,134.38,22.23,258.63,21.95c66.38,0,126.66,9.65,170.4,35.83l4.28,2.65c31.52,20.13,53.84,49.31,62.93,90.4,.21,.7,.38,1.46,.49,2.23,2.72,12.89,4.14,26.89,4.14,42.17Z"/>
    <g>
      <path class="cls-2" d="M496.25,150.85c.19,.71,.38,1.46,.47,2.21l-146.39,21.64c23-3.48,81.33-12.46,145.92-23.85Z"/>
      <path class="cls-2" d="M175.39,176.25c-58.19-.89-110.73-2.16-158.15-3.72,.09-1.41,.24-2.77,.42-4.14,89.28,4.75,157.72,7.86,157.72,7.86Z"/>
      <polygon class="cls-2" points="433.31 60.44 339.98 131.04 429.03 57.8 433.31 60.44"/>
      <path class="cls-2" d="M172.57,195.25L21.05,267.69c-.28-1.32-.56-2.63-.85-4l152.36-68.44Z"/>
      <polygon class="cls-2" points="370.6 195.25 500.86 214.72 500.86 215.67 370.6 195.25"/>
      <polygon class="cls-2" points="108.92 195.25 16.16 204.61 16.16 203.62 108.92 195.25"/>
      <path class="cls-2" d="M352.94,310.96c6.79-3.87,11.87-11.32,11.87-22.84,0-5.15-.7-9.26-1.85-12.61-1.88-5.61-4.98-8.95-7.94-10.93v-59.9c0-2.82-1.22-5.4-3.06-7.31l-1.5-1.29c-1.15-.66-2.33-1.18-3.73-1.53-.66-.1-1.36-.14-2.05-.14h-13.93v-53.66c.98-.31,1.85-.66,2.65-1.08,.87-.42,1.67-.87,2.44-1.39,4.46-2.92,7.14-7.38,7.14-12.88,0-4.14-2.05-7.49-5.78-10.83-2.23-2.09-5.05-4.15-8.39-6.3-2.61-1.67-5.78-3.55-9.3-5.61-3.59-2.2-7.77-4.39-12.19-6.83-3.83-2.06-7.63-4.11-11.25-5.92-1.15-.59-2.33-1.25-3.38-1.74l-4.88-2.47c-1.88-.98-3.73-1.78-5.19-2.61l-1.36-.73-10.55-5.71-1.18-.59-9.23-4.98-1.6-.87-.21,.11-22.74,11.91-3.27,1.84-.24,.07c-1.43,.7-2.93,1.46-4.49,2.33-1.11,.52-2.12,1.12-3.27,1.6l-14.77,7.77c-2.23,1.18-4.39,2.44-6.44,3.52-2.02,1.11-3.97,2.26-5.75,3.31-3.52,2.05-6.72,3.93-9.3,5.61-1.08,.83-2.23,1.46-3.2,2.16-7.03,4.88-11.01,9.23-11.01,14.98,0,4.53,1.85,8.43,5.08,11.25,1.92,1.78,4.28,3.2,7.17,4.11v53.66h-13.93c-1.46,0-2.75,.21-4.04,.73-1.22,.49-2.33,1.32-3.27,2.23-1.85,1.92-3.03,4.49-3.03,7.31v59.9c-.59,.35-1.18,.83-1.78,1.39-1.85,1.5-3.52,3.59-4.94,6.44-1.78,3.8-3.06,8.81-3.06,15.7,0,8.18,2.58,14.35,6.55,18.67,2.33,2.54,5.26,4.46,8.32,5.75l-8.81,72.3c7.24,1.57,14.7,2.92,22.29,4.07,24.52,3.76,50.7,5.47,77.94,5.5v-78.18l67.87-8.67-63.07-8.01-50.39-4.88,45.58-4.49v-11.49l74-8.43-46.73-5.33-72.85-7.07,45.58-4.46v-31.03l79.68-9.68-59.93-7.24,36.11-10.72h-25v-54.74h25l-55.86-16.68v-35.56l13.69,1.74s60.46,29.11,60.46,35.9c0,6.37-10.38,6.58-12.01,6.58-.1,0-.14-.04-.14-.04v72.75h24.2v67.14h.59c2.09,0,9.19,1.08,9.19,16.3s-10.83,15.95-14.63,15.95c-.8,0-1.36-.04-1.36-.04l10.1,82.85c3.45-.63,6.83-1.32,10.17-2.05l-8.85-72.3c1.04-.42,2.05-.97,3.03-1.57Zm-154.34-116.24h-2.05v-54.74h2.05v54.74Zm8.01,0h-2.23v-54.74h2.23v54.74Zm21.07,0h-9.93v-54.74h9.93v54.74Zm51.37-54.74v54.74h-41.09v-54.74h41.09Z"/>
    </g>
  </g>
</svg>